<svg width="512" height="512" version="1.1" xmlns="http://www.w3.org/2000/svg" desc="Created with imagetracer.js version 1.2.6" ><path fill="rgb(255,255,255)" stroke="rgb(255,255,255)" stroke-width="1" opacity="0.9803921568627451" d="M 64 149 L 107 149 L 107 192 L 64 192 L 64 149 Z " /><path fill="rgb(255,255,255)" stroke="rgb(255,255,255)" stroke-width="1" opacity="0.9803921568627451" d="M 149 149 L 447.5 149 L 448 149.5 L 448 192 L 149.5 192 L 149 191.5 L 149 149 Z " /><path fill="rgb(255,255,255)" stroke="rgb(255,255,255)" stroke-width="1" opacity="0.9803921568627451" d="M 64 234 L 107 234 L 107 278 L 64 278 L 64 234 Z " /><path fill="rgb(255,255,255)" stroke="rgb(255,255,255)" stroke-width="1" opacity="0.9803921568627451" d="M 149 234 L 447.5 234 L 448 234.5 L 448 278 L 149.5 278 L 149 277.5 L 149 234 Z " /><path fill="rgb(255,255,255)" stroke="rgb(255,255,255)" stroke-width="1" opacity="0.9803921568627451" d="M 64 320 L 107 320 L 107 363 L 64 363 L 64 320 Z " /><path fill="rgb(255,255,255)" stroke="rgb(255,255,255)" stroke-width="1" opacity="0.9803921568627451" d="M 149 320 L 447.5 320 L 448 320.5 L 448 363 L 149.5 363 L 149 362.5 L 149 320 Z " /><path fill="rgb(0,0,0)" stroke="rgb(0,0,0)" stroke-width="1" opacity="0" d="M 0 0 L 512 0 L 512 512 L 0 512 L 0 0 Z M 64 149 L 64 192 L 107 192 L 107 149 L 64 149 Z M 149 149 L 149 192 L 150 192 L 448 192 L 448 150 L 448 149 L 149 149 Z M 64 234 L 64 278 L 107 278 L 107 234 L 64 234 Z M 149 234 L 149 278 L 150 278 L 448 278 L 448 235 L 448 234 L 149 234 Z M 64 320 L 64 363 L 107 363 L 107 320 L 64 320 Z M 149 320 L 149 363 L 150 363 L 448 363 L 448 321 L 448 320 L 149 320 Z " /></svg>