<svg width="512" height="512" version="1.1" xmlns="http://www.w3.org/2000/svg" desc="Created with imagetracer.js version 1.2.6" ><path fill="rgb(0,0,0)" stroke="rgb(0,0,0)" stroke-width="1" opacity="0.9803921568627451" d="M 64 149 L 105.5 149 L 107 150.5 L 107 192 L 64 192 L 64 149 Z " /><path fill="rgb(0,0,0)" stroke="rgb(0,0,0)" stroke-width="1" opacity="0.9803921568627451" d="M 150.5 149 L 447.5 149 L 448 149.5 L 448 192 L 149.5 192 L 149 191.5 L 149 150.5 L 150.5 149 Z " /><path fill="rgb(0,0,0)" stroke="rgb(0,0,0)" stroke-width="1" opacity="0.9803921568627451" d="M 64 235 L 107 235 L 107 277 L 64 277 L 64 235 Z " /><path fill="rgb(0,0,0)" stroke="rgb(0,0,0)" stroke-width="1" opacity="0.9803921568627451" d="M 149 235 L 447.5 235 L 448 235.5 L 448 277 L 149.5 277 L 149 276.5 L 149 235 Z " /><path fill="rgb(0,0,0)" stroke="rgb(0,0,0)" stroke-width="1" opacity="0.9803921568627451" d="M 64 320 L 107 320 L 107 361.5 L 105.5 363 L 64 363 L 64 320 Z " /><path fill="rgb(0,0,0)" stroke="rgb(0,0,0)" stroke-width="1" opacity="0.9803921568627451" d="M 149 320 L 447.5 320 L 448 320.5 L 448 363 L 150.5 363 L 149 361.5 L 149 320 Z " /><path fill="rgb(0,0,0)" stroke="rgb(0,0,0)" stroke-width="1" opacity="0" d="M 0 0 L 512 0 L 512 512 L 0 512 L 0 0 Z M 64 149 L 64 192 L 107 192 L 107 151 L 106 149 L 64 149 Z M 151 149 L 149 151 L 149 192 L 150 192 L 448 192 L 448 150 L 448 149 L 151 149 Z M 64 235 L 64 277 L 107 277 L 107 235 L 64 235 Z M 149 235 L 149 277 L 150 277 L 448 277 L 448 236 L 448 235 L 149 235 Z M 64 320 L 64 363 L 106 363 L 107 362 L 107 320 L 64 320 Z M 149 320 L 149 362 L 151 363 L 448 363 L 448 321 L 448 320 L 149 320 Z " /></svg>