<svg width="512" height="512" version="1.1" xmlns="http://www.w3.org/2000/svg" desc="Created with imagetracer.js version 1.2.6" ><path fill="rgb(0,0,0)" stroke="rgb(0,0,0)" stroke-width="1" opacity="0.8196078431372549" d="M 438.5 95 L 446 100.5 L 441.5 97 Q 437.7 96.8 438.5 95 Z " /><path fill="rgb(0,0,0)" stroke="rgb(0,0,0)" stroke-width="1" opacity="0.8196078431372549" d="M 197.5 97 L 194.5 101 L 197.5 97 Z " /><path fill="rgb(0,0,0)" stroke="rgb(0,0,0)" stroke-width="1" opacity="0.8196078431372549" d="M 192.5 104 L 193 106.5 L 192 106.5 L 192.5 104 Z " /><path fill="rgb(0,0,0)" stroke="rgb(0,0,0)" stroke-width="1" opacity="0.8196078431372549" d="M 219.5 121 L 420.5 121 L 422 122.5 L 421.5 392 L 421 122 L 219.5 122 L 219 122.5 L 219 179.5 L 218 179.5 L 218 122.5 L 219.5 121 Z " /><path fill="rgb(0,0,0)" stroke="rgb(0,0,0)" stroke-width="1" opacity="0.8196078431372549" d="M 164.5 154 L 170 154.5 L 164.5 155 L 164.5 154 Z " /><path fill="rgb(0,0,0)" stroke="rgb(0,0,0)" stroke-width="1" opacity="0.8196078431372549" d="M 159.5 156 L 66.5 250 L 159.5 156 Z " /><path fill="rgb(0,0,0)" stroke="rgb(0,0,0)" stroke-width="1" opacity="0.8196078431372549" d="M 174.5 156 L 180 163.5 L 179 163.5 L 174.5 156 Z " /><path fill="rgb(0,0,0)" stroke="rgb(0,0,0)" stroke-width="1" opacity="0.8196078431372549" d="M 180.5 166 L 181 210.5 L 180 210.5 L 180.5 166 Z " /><path fill="rgb(0,0,0)" stroke="rgb(0,0,0)" stroke-width="1" opacity="0.8196078431372549" d="M 193.5 181 L 195 183.5 L 193 182.5 L 193.5 181 Z " /><path fill="rgb(0,0,0)" stroke="rgb(0,0,0)" stroke-width="1" opacity="0.8196078431372549" d="M 216.5 183 L 215.5 185 L 216.5 183 Z " /><path fill="rgb(0,0,0)" stroke="rgb(0,0,0)" stroke-width="1" opacity="0.8196078431372549" d="M 197.5 186 L 198.5 188 L 197.5 186 Z " /><path fill="rgb(0,0,0)" stroke="rgb(0,0,0)" stroke-width="1" opacity="0.8196078431372549" d="M 213.5 186 L 212.5 188 L 213.5 186 Z " /><path fill="rgb(0,0,0)" stroke="rgb(0,0,0)" stroke-width="1" opacity="0.8196078431372549" d="M 203.5 189 L 208 189.5 L 203.5 190 L 203.5 189 Z " /><path fill="rgb(0,0,0)" stroke="rgb(0,0,0)" stroke-width="1" opacity="0.8196078431372549" d="M 153.5 200 L 154 225.5 L 153 225.5 L 153.5 200 Z " /><path fill="rgb(0,0,0)" stroke="rgb(0,0,0)" stroke-width="1" opacity="0.8196078431372549" d="M 287.5 211 L 290 211.5 L 287.5 212 L 287.5 211 Z " /><path fill="rgb(0,0,0)" stroke="rgb(0,0,0)" stroke-width="1" opacity="0.8196078431372549" d="M 291.5 212 L 294 213.5 L 292.5 213 L 291.5 212 Z " /><path fill="rgb(0,0,0)" stroke="rgb(0,0,0)" stroke-width="1" opacity="0.8196078431372549" d="M 299.5 222 L 300 291.5 L 299 291.5 L 299.5 222 Z " /><path fill="rgb(0,0,0)" stroke="rgb(0,0,0)" stroke-width="1" opacity="0.8196078431372549" d="M 155.5 231 L 156.5 233 L 155.5 231 Z " /><path fill="rgb(0,0,0)" stroke="rgb(0,0,0)" stroke-width="1" opacity="0.8196078431372549" d="M 158.5 234 L 159.5 236 L 158.5 234 Z " /><path fill="rgb(0,0,0)" stroke="rgb(0,0,0)" stroke-width="1" opacity="0.8196078431372549" d="M 163.5 237 L 166 237.5 L 163.5 238 L 163.5 237 Z " /><path fill="rgb(0,0,0)" stroke="rgb(0,0,0)" stroke-width="1" opacity="0.8196078431372549" d="M 64.5 254 L 65 258.5 L 64 258.5 L 64.5 254 Z " /><path fill="rgb(0,0,0)" stroke="rgb(0,0,0)" stroke-width="1" opacity="0.8196078431372549" d="M 97.5 257 L 153 311.5 L 153.5 287 L 154 313 L 152.5 313 L 97.5 257 Z " /><path fill="rgb(0,0,0)" stroke="rgb(0,0,0)" stroke-width="1" opacity="0.8196078431372549" d="M 67.5 265 L 157.5 356 L 67.5 265 Z " /><path fill="rgb(0,0,0)" stroke="rgb(0,0,0)" stroke-width="1" opacity="0.8196078431372549" d="M 166.5 275 L 273 275.5 L 166.5 276 L 166.5 275 Z " /><path fill="rgb(0,0,0)" stroke="rgb(0,0,0)" stroke-width="1" opacity="0.8196078431372549" d="M 158.5 278 L 156.5 281 L 158.5 278 Z " /><path fill="rgb(0,0,0)" stroke="rgb(0,0,0)" stroke-width="1" opacity="0.8196078431372549" d="M 297.5 296 L 293.5 301 L 290.5 302 L 290.5 301 L 297.5 296 Z " /><path fill="rgb(0,0,0)" stroke="rgb(0,0,0)" stroke-width="1" opacity="0.8196078431372549" d="M 180 302 L 288 302.5 L 181 303 L 180.5 347 L 180 302 Z " /><path fill="rgb(0,0,0)" stroke="rgb(0,0,0)" stroke-width="1" opacity="0.8196078431372549" d="M 201.5 324 L 204 324.5 L 201.5 325 L 201.5 324 Z " /><path fill="rgb(0,0,0)" stroke="rgb(0,0,0)" stroke-width="1" opacity="0.8196078431372549" d="M 207.5 324 L 210 324.5 L 207.5 325 L 207.5 324 Z " /><path fill="rgb(0,0,0)" stroke="rgb(0,0,0)" stroke-width="1" opacity="0.8196078431372549" d="M 197.5 326 L 194.5 330 L 197.5 326 Z " /><path fill="rgb(0,0,0)" stroke="rgb(0,0,0)" stroke-width="1" opacity="0.8196078431372549" d="M 213.5 326 L 215.5 329 L 213.5 326 Z " /><path fill="rgb(0,0,0)" stroke="rgb(0,0,0)" stroke-width="1" opacity="0.8196078431372549" d="M 216.5 330 L 217.5 332 L 216.5 330 Z " /><path fill="rgb(0,0,0)" stroke="rgb(0,0,0)" stroke-width="1" opacity="0.8196078431372549" d="M 192.5 333 L 193 335.5 L 192 335.5 L 192.5 333 Z " /><path fill="rgb(0,0,0)" stroke="rgb(0,0,0)" stroke-width="1" opacity="0.8196078431372549" d="M 218.5 334 L 219 391.5 L 218 391.5 L 218.5 334 Z " /><path fill="rgb(0,0,0)" stroke="rgb(0,0,0)" stroke-width="1" opacity="0.8196078431372549" d="M 193.5 411 L 194.5 413 L 193.5 411 Z " /><path fill="rgb(0,0,0)" stroke="rgb(0,0,0)" stroke-width="1" opacity="0.8196078431372549" d="M 445.5 413 L 443.5 416 L 445.5 413 Z " /><path fill="rgb(0,0,0)" stroke="rgb(0,0,0)" stroke-width="1" opacity="0.8196078431372549" d="M 195.5 414 L 196.5 416 L 195.5 414 Z " /><path fill="rgb(0,0,0)" stroke="rgb(0,0,0)" stroke-width="1" opacity="0.8196078431372549" d="M 198.5 416 L 201 417.5 L 199.5 418 L 198.5 416 Z " /><path fill="rgb(0,0,0)" stroke="rgb(0,0,0)" stroke-width="1" opacity="0.8196078431372549" d="M 441.5 416 L 440.5 418 L 439 417.5 L 441.5 416 Z " /><path fill="rgb(0,0,0)" stroke="rgb(0,0,0)" stroke-width="1" opacity="0.8196078431372549" d="M 202.5 418 L 438 418.5 L 202.5 419 L 202.5 418 Z " /><path fill="rgb(0,0,0)" stroke="rgb(0,0,0)" stroke-width="1" opacity="0.996078431372549" d="M 203.5 95 L 438 95.5 L 203.5 96 L 203.5 95 Z " /><path fill="rgb(0,0,0)" stroke="rgb(0,0,0)" stroke-width="1" opacity="0.996078431372549" d="M 447.5 106 L 448 407.5 L 447 407.5 L 447.5 106 Z " /><path fill="rgb(0,0,0)" stroke="rgb(0,0,0)" stroke-width="1" opacity="0.996078431372549" d="M 192.5 107 L 193 177.5 L 192 177.5 L 192.5 107 Z " /><path fill="rgb(0,0,0)" stroke="rgb(0,0,0)" stroke-width="1" opacity="0.996078431372549" d="M 195.5 184 L 196.5 186 L 195.5 184 Z " /><path fill="rgb(0,0,0)" stroke="rgb(0,0,0)" stroke-width="1" opacity="0.996078431372549" d="M 152.5 200 L 96.5 257 L 152.5 200 Z " /><path fill="rgb(0,0,0)" stroke="rgb(0,0,0)" stroke-width="1" opacity="0.996078431372549" d="M 180.5 211 L 287 211.5 L 180.5 212 L 180.5 211 Z " /><path fill="rgb(0,0,0)" stroke="rgb(0,0,0)" stroke-width="1" opacity="0.996078431372549" d="M 294.5 214 L 296.5 217 L 294.5 214 Z " /><path fill="rgb(0,0,0)" stroke="rgb(0,0,0)" stroke-width="1" opacity="0.996078431372549" d="M 166.5 237 L 272.5 237 L 274 238.5 L 273.5 276 L 273 238 L 166.5 238 L 166.5 237 Z " /><path fill="rgb(0,0,0)" stroke="rgb(0,0,0)" stroke-width="1" opacity="0.996078431372549" d="M 204.5 324 L 207 324.5 L 204.5 325 L 204.5 324 Z " /><path fill="rgb(0,0,0)" stroke="rgb(0,0,0)" stroke-width="1" opacity="0.996078431372549" d="M 192.5 336 L 193 406.5 L 192 406.5 L 192.5 336 Z " /><path fill="rgb(0,0,0)" stroke="rgb(0,0,0)" stroke-width="1" opacity="0.996078431372549" d="M 218.5 392 L 422 392.5 L 218.5 393 L 218.5 392 Z " /><path fill="rgb(0,0,0)" stroke="rgb(0,0,0)" stroke-width="1" opacity="0" d="M 0 0 L 512 0 L 512 512 L 0 512 L 0 0 Z M 202 95 L 198 97 L 192 105 L 192 180 L 193 183 Q 196 188 204 190 Q 210 191 213 188 L 219 180 L 219 123 L 220 122 L 421 122 L 421 392 L 219 392 L 219 335 L 216 329 L 210 324 Q 201 323 198 326 L 192 334 L 192 409 L 195 415 L 203 419 L 438 419 L 444 416 L 448 410 L 448 105 L 446 101 L 440 95 L 202 95 Z M 165 154 L 160 156 L 66 250 L 64 255 L 64 259 L 67 266 L 158 356 L 163 359 L 172 359 L 177 356 L 181 347 L 181 303 L 288 303 L 294 301 Q 298 298 300 292 L 300 223 L 298 218 Q 296 212 290 211 L 181 211 L 181 167 L 179 161 Q 175 154 165 154 Z " /><path fill="rgb(0,0,0)" stroke="rgb(0,0,0)" stroke-width="1" opacity="0" d="M 152.5 201 L 153 225.5 Q 154.1 232.9 159.5 236 L 163.5 238 L 273 238 L 273 275 L 166.5 275 L 158.5 278 L 156 280.5 L 153 287.5 L 152.5 312 L 97 256.5 L 152.5 201 Z " /><path fill="rgb(0,0,0)" stroke="rgb(0,0,0)" stroke-width="1" opacity="1" d="M 200.5 96 L 439.5 96 L 446 101.5 L 447 103.5 L 447 409.5 L 442.5 416 L 438.5 418 L 201.5 418 L 195 413.5 L 193 409.5 L 193 333.5 L 197.5 327 Q 201.2 323.7 209.5 325 L 216 329.5 L 218 333.5 L 218 393 L 422 393 L 422 121 L 218.5 121 L 218 121.5 L 218 179.5 L 212.5 187 Q 209.5 190 202.5 189 Q 196.4 187.6 194 182.5 L 193 180.5 L 193 104.5 L 198.5 97 L 200.5 96 Z " /><path fill="rgb(0,0,0)" stroke="rgb(0,0,0)" stroke-width="1" opacity="1" d="M 163.5 155 L 170.5 155 L 178 160.5 L 180 165.5 L 180 212 L 290.5 212 L 298 218.5 L 299 221.5 L 299 292.5 L 293.5 300 L 288.5 302 L 180 302 L 180 347.5 L 175.5 356 L 166.5 359 L 158.5 356 L 68 265.5 Q 64.2 262.3 65 254.5 L 67 249.5 L 159.5 157 L 163.5 155 Z M 153 200 L 96 257 L 154 314 L 154 287 L 157 281 L 162 277 L 166 276 L 274 276 L 274 239 L 273 237 L 163 237 L 161 236 Q 156 233 154 227 L 154 201 L 153 200 Z " /></svg>