<svg width="512" height="512" version="1.1" xmlns="http://www.w3.org/2000/svg" desc="Created with imagetracer.js version 1.2.6" ><path fill="rgb(0,0,0)" stroke="rgb(0,0,0)" stroke-width="1" opacity="0" d="M 0 0 L 512 0 L 512 203.5 L 511 203.5 Q 508 185.5 495.5 177 L 484.5 171 L 469.5 168 L 468.5 169 L 460.5 169 L 451.5 172 L 443.5 177 L 393.5 227 L 393 61.5 L 391 51.5 L 383.5 41 L 371.5 35 L 238 35 Q 234.4 17.9 221.5 9 Q 214.2 3.3 203.5 1 L 188.5 1 Q 171.1 5.1 162 17.5 L 156 27.5 L 155 33.5 L 153.5 35 L 20.5 35 L 7 42 L 2 49.5 L 0.5 55 L 0 0 Z " /><path fill="rgb(0,0,0)" stroke="rgb(0,0,0)" stroke-width="1" opacity="0" d="M 194.5 18 L 203.5 19 L 215 26.5 L 220 34.5 L 173 35 Q 174.9 26.3 182.5 22 L 194.5 18 Z " /><path fill="rgb(0,0,0)" stroke="rgb(0,0,0)" stroke-width="1" opacity="0" d="M 26.5 52 L 109.5 52 L 111 53.5 L 111 68.5 L 110.5 69 L 47.5 69 Q 39.6 71.1 36 77.5 L 34 82.5 L 34 465.5 Q 35.8 472.7 41.5 476 L 48.5 479 L 343.5 479 Q 351.9 476.9 356 470.5 L 358 466.5 L 358 383.5 L 374.5 367 L 375 488.5 L 371.5 494 L 369.5 495 L 22.5 495 L 19 493 L 17 487.5 L 17 60.5 L 20.5 54 L 26.5 52 Z " /><path fill="rgb(0,0,0)" stroke="rgb(0,0,0)" stroke-width="1" opacity="0" d="M 128 52 L 263.5 52 L 264 52.5 L 264 80.5 L 262 84 L 258.5 86 L 134.5 86 L 130 84 L 128 79.5 L 128 52 Z " /><path fill="rgb(0,0,0)" stroke="rgb(0,0,0)" stroke-width="1" opacity="0" d="M 282 52 L 366.5 52 L 370.5 53 L 374 56.5 L 375 59.5 L 375 245.5 L 359.5 261 L 358 261 L 358 81.5 L 352.5 73 L 344.5 69 L 282 69 L 282 52 Z " /><path fill="rgb(0,0,0)" stroke="rgb(0,0,0)" stroke-width="1" opacity="0" d="M 51 87 L 112.5 87 L 113 88.5 L 121.5 99 L 129.5 103 Q 134.3 101.8 135.5 104 L 256.5 104 L 267.5 101 L 277 92.5 L 280.5 87 L 340.5 87 L 341 87.5 L 341 279.5 L 256 364.5 L 237 420.5 L 236 427 L 194.5 427 L 189 430.5 L 187 436.5 L 192.5 444 L 195.5 445 L 254.5 445 L 315.5 425 L 340.5 401 L 341 461 L 51 461 L 51 87 Z M 110 120 L 107 121 L 85 149 L 80 146 L 73 147 L 68 153 Q 67 158 70 161 L 80 170 L 85 172 L 90 171 L 119 133 L 119 126 L 117 122 L 110 120 Z M 143 146 L 141 147 L 136 154 Q 136 161 142 163 L 319 163 L 321 162 L 324 158 L 324 152 L 322 148 L 319 146 L 143 146 Z M 108 189 L 106 190 L 85 218 L 79 214 L 73 215 L 68 222 L 70 229 L 83 240 L 90 239 L 116 206 L 120 197 L 119 194 Q 117 187 108 189 Z M 143 214 L 141 215 L 136 222 L 138 229 L 146 232 L 316 232 L 321 230 L 324 226 L 324 220 L 322 216 L 318 214 L 143 214 Z M 108 257 L 104 259 L 85 286 L 78 282 L 72 284 L 68 290 L 70 297 L 83 308 L 90 307 L 95 302 L 120 267 L 119 262 Q 117 255 108 257 Z M 144 282 L 140 284 L 136 290 L 138 297 L 145 300 L 291 300 L 296 298 L 299 292 L 297 286 L 291 282 L 144 282 Z M 109 325 L 107 326 L 85 354 L 81 351 L 74 351 L 70 353 L 68 358 L 69 364 L 83 376 Q 89 377 92 374 L 117 341 L 120 335 L 118 329 Q 116 324 109 325 Z M 145 350 L 138 353 L 136 359 L 138 365 L 144 368 L 241 368 L 245 366 Q 248 363 247 356 L 243 351 L 239 350 L 145 350 Z M 109 393 L 107 394 L 85 422 Q 82 418 74 419 L 68 426 L 69 432 L 82 444 L 85 445 L 90 444 Q 106 425 120 403 L 118 397 Q 116 392 109 393 Z M 144 427 L 140 429 L 136 435 L 138 442 L 145 445 L 163 445 L 168 443 L 171 437 L 169 431 L 164 427 L 144 427 Z " /><path fill="rgb(0,0,0)" stroke="rgb(0,0,0)" stroke-width="1" opacity="0" d="M 463.5 187 L 478.5 188 L 487 193 L 493 202.5 L 494 217.5 L 490 226.5 L 469.5 247 L 433 211.5 L 451.5 193 L 463.5 187 Z " /><path fill="rgb(0,0,0)" stroke="rgb(0,0,0)" stroke-width="1" opacity="0" d="M 511.5 219 L 512 512 L 375 511.5 L 386 504.5 L 391 496.5 L 393 486.5 L 393 348.5 L 502 239.5 Q 509.5 232 511.5 219 Z " /><path fill="rgb(0,0,0)" stroke="rgb(0,0,0)" stroke-width="1" opacity="0" d="M 420.5 224 L 456 260.5 L 444.5 271 L 409 235.5 L 420.5 224 Z " /><path fill="rgb(0,0,0)" stroke="rgb(0,0,0)" stroke-width="1" opacity="0" d="M 396.5 248 L 408 260.5 L 383 285.5 L 382 293.5 L 384 297 Q 386.3 299.6 392.5 299 L 396.5 297 L 421.5 273 L 432 284.5 L 311.5 404 L 301 392.5 L 373 320.5 Q 376.2 318.2 375 311.5 L 371.5 307 L 363.5 306 L 287.5 380 L 277 369.5 L 277 367.5 L 396.5 248 Z " /><path fill="rgb(0,0,0)" stroke="rgb(0,0,0)" stroke-width="1" opacity="0" d="M 268.5 385 L 295.5 413 L 254.5 427 L 254 425.5 L 267 386.5 L 268.5 385 Z " /><path fill="rgb(0,0,0)" stroke="rgb(0,0,0)" stroke-width="1" opacity="0" d="M 0.5 493 Q 3.2 503.8 11.5 509 L 18 511.5 L 0 512 L 0.5 493 Z " /><path fill="rgb(0,0,0)" stroke="rgb(0,0,0)" stroke-width="1" opacity="0.8823529411764706" d="M 197.5 1 L 200 1.5 L 197.5 2 L 197.5 1 Z " /><path fill="rgb(0,0,0)" stroke="rgb(0,0,0)" stroke-width="1" opacity="0.8823529411764706" d="M 222.5 10 L 228.5 17 L 222.5 10 Z " /><path fill="rgb(0,0,0)" stroke="rgb(0,0,0)" stroke-width="1" opacity="0.8823529411764706" d="M 168.5 11 L 164.5 16 L 168.5 11 Z " /><path fill="rgb(0,0,0)" stroke="rgb(0,0,0)" stroke-width="1" opacity="0.8823529411764706" d="M 213.5 24 L 215.5 27 L 213.5 24 Z " /><path fill="rgb(0,0,0)" stroke="rgb(0,0,0)" stroke-width="1" opacity="0.8823529411764706" d="M 237.5 34 L 238.5 35 L 368 35.5 L 238.5 36 L 237.5 34 Z " /><path fill="rgb(0,0,0)" stroke="rgb(0,0,0)" stroke-width="1" opacity="0.8823529411764706" d="M 24.5 35 L 154 35.5 L 24.5 36 L 24.5 35 Z " /><path fill="rgb(0,0,0)" stroke="rgb(0,0,0)" stroke-width="1" opacity="0.8823529411764706" d="M 172.5 35 L 220 35.5 L 172.5 36 L 172.5 35 Z " /><path fill="rgb(0,0,0)" stroke="rgb(0,0,0)" stroke-width="1" opacity="0.8823529411764706" d="M 380.5 39 L 381.5 41 L 380.5 39 Z " /><path fill="rgb(0,0,0)" stroke="rgb(0,0,0)" stroke-width="1" opacity="0.8823529411764706" d="M 10.5 40 L 9.5 42 L 10.5 40 Z " /><path fill="rgb(0,0,0)" stroke="rgb(0,0,0)" stroke-width="1" opacity="0.8823529411764706" d="M 6.5 44 L 5.5 46 L 6.5 44 Z " /><path fill="rgb(0,0,0)" stroke="rgb(0,0,0)" stroke-width="1" opacity="0.8823529411764706" d="M 386.5 45 L 387.5 47 L 386.5 45 Z " /><path fill="rgb(0,0,0)" stroke="rgb(0,0,0)" stroke-width="1" opacity="0.8823529411764706" d="M 127.5 52 L 128 77.5 L 127 77.5 L 127.5 52 Z " /><path fill="rgb(0,0,0)" stroke="rgb(0,0,0)" stroke-width="1" opacity="0.8823529411764706" d="M 20.5 53 L 18.5 56 L 20.5 53 Z " /><path fill="rgb(0,0,0)" stroke="rgb(0,0,0)" stroke-width="1" opacity="0.8823529411764706" d="M 375.5 60 L 376 245.5 L 359 261.5 L 375 245.5 L 375.5 60 Z " /><path fill="rgb(0,0,0)" stroke="rgb(0,0,0)" stroke-width="1" opacity="0.8823529411764706" d="M 51.5 69 L 111 69.5 L 51.5 70 L 51.5 69 Z " /><path fill="rgb(0,0,0)" stroke="rgb(0,0,0)" stroke-width="1" opacity="0.8823529411764706" d="M 281.5 69 L 342 69.5 L 281.5 70 L 281.5 69 Z " /><path fill="rgb(0,0,0)" stroke="rgb(0,0,0)" stroke-width="1" opacity="0.8823529411764706" d="M 41.5 72 L 37.5 77 L 41.5 72 Z " /><path fill="rgb(0,0,0)" stroke="rgb(0,0,0)" stroke-width="1" opacity="0.8823529411764706" d="M 262.5 83 L 261.5 85 L 262.5 83 Z " /><path fill="rgb(0,0,0)" stroke="rgb(0,0,0)" stroke-width="1" opacity="0.8823529411764706" d="M 34.5 84 L 35 463.5 L 34 463.5 L 34.5 84 Z " /><path fill="rgb(0,0,0)" stroke="rgb(0,0,0)" stroke-width="1" opacity="0.8823529411764706" d="M 135.5 86 L 257 86.5 L 135.5 87 L 135.5 86 Z " /><path fill="rgb(0,0,0)" stroke="rgb(0,0,0)" stroke-width="1" opacity="0.8823529411764706" d="M 341.5 86 L 342 278.5 L 341 278.5 L 341.5 86 Z " /><path fill="rgb(0,0,0)" stroke="rgb(0,0,0)" stroke-width="1" opacity="0.8823529411764706" d="M 275.5 93 L 271.5 98 L 275.5 93 Z " /><path fill="rgb(0,0,0)" stroke="rgb(0,0,0)" stroke-width="1" opacity="0.8823529411764706" d="M 117.5 94 L 119.5 97 L 117.5 94 Z " /><path fill="rgb(0,0,0)" stroke="rgb(0,0,0)" stroke-width="1" opacity="0.8823529411764706" d="M 102.5 126 L 101.5 128 L 102.5 126 Z " /><path fill="rgb(0,0,0)" stroke="rgb(0,0,0)" stroke-width="1" opacity="0.8823529411764706" d="M 99.5 130 L 98.5 132 L 99.5 130 Z " /><path fill="rgb(0,0,0)" stroke="rgb(0,0,0)" stroke-width="1" opacity="0.8823529411764706" d="M 96.5 134 L 95.5 136 L 96.5 134 Z " /><path fill="rgb(0,0,0)" stroke="rgb(0,0,0)" stroke-width="1" opacity="0.8823529411764706" d="M 93.5 138 L 92.5 140 L 93.5 138 Z " /><path fill="rgb(0,0,0)" stroke="rgb(0,0,0)" stroke-width="1" opacity="0.8823529411764706" d="M 90.5 142 L 89.5 144 L 90.5 142 Z " /><path fill="rgb(0,0,0)" stroke="rgb(0,0,0)" stroke-width="1" opacity="0.8823529411764706" d="M 87.5 146 L 86.5 148 L 87.5 146 Z " /><path fill="rgb(0,0,0)" stroke="rgb(0,0,0)" stroke-width="1" opacity="0.8823529411764706" d="M 71.5 148 L 70.5 150 L 71.5 148 Z " /><path fill="rgb(0,0,0)" stroke="rgb(0,0,0)" stroke-width="1" opacity="0.8823529411764706" d="M 139.5 148 L 138.5 150 L 139.5 148 Z " /><path fill="rgb(0,0,0)" stroke="rgb(0,0,0)" stroke-width="1" opacity="0.8823529411764706" d="M 138.5 159 L 139.5 161 L 138.5 159 Z " /><path fill="rgb(0,0,0)" stroke="rgb(0,0,0)" stroke-width="1" opacity="0.8823529411764706" d="M 493.5 176 L 494.5 178 L 493.5 176 Z " /><path fill="rgb(0,0,0)" stroke="rgb(0,0,0)" stroke-width="1" opacity="0.8823529411764706" d="M 441.5 179 L 393.5 228 L 441.5 179 Z " /><path fill="rgb(0,0,0)" stroke="rgb(0,0,0)" stroke-width="1" opacity="0.8823529411764706" d="M 115.5 190 L 117.5 193 L 115.5 190 Z " /><path fill="rgb(0,0,0)" stroke="rgb(0,0,0)" stroke-width="1" opacity="0.8823529411764706" d="M 103.5 193 L 102.5 195 L 103.5 193 Z " /><path fill="rgb(0,0,0)" stroke="rgb(0,0,0)" stroke-width="1" opacity="0.8823529411764706" d="M 450.5 193 L 433.5 211 L 450.5 193 Z " /><path fill="rgb(0,0,0)" stroke="rgb(0,0,0)" stroke-width="1" opacity="0.8823529411764706" d="M 100.5 197 L 99.5 199 L 100.5 197 Z " /><path fill="rgb(0,0,0)" stroke="rgb(0,0,0)" stroke-width="1" opacity="0.8823529411764706" d="M 97.5 201 L 96.5 203 L 97.5 201 Z " /><path fill="rgb(0,0,0)" stroke="rgb(0,0,0)" stroke-width="1" opacity="0.8823529411764706" d="M 116.5 203 L 115.5 205 L 116.5 203 Z " /><path fill="rgb(0,0,0)" stroke="rgb(0,0,0)" stroke-width="1" opacity="0.8823529411764706" d="M 94.5 205 L 93.5 207 L 94.5 205 Z " /><path fill="rgb(0,0,0)" stroke="rgb(0,0,0)" stroke-width="1" opacity="0.8823529411764706" d="M 511.5 206 L 512 210.5 L 511 210.5 L 511.5 206 Z " /><path fill="rgb(0,0,0)" stroke="rgb(0,0,0)" stroke-width="1" opacity="0.8823529411764706" d="M 113.5 207 L 112.5 209 L 113.5 207 Z " /><path fill="rgb(0,0,0)" stroke="rgb(0,0,0)" stroke-width="1" opacity="0.8823529411764706" d="M 91.5 209 L 90.5 211 L 91.5 209 Z " /><path fill="rgb(0,0,0)" stroke="rgb(0,0,0)" stroke-width="1" opacity="0.8823529411764706" d="M 110.5 211 L 109.5 213 L 110.5 211 Z " /><path fill="rgb(0,0,0)" stroke="rgb(0,0,0)" stroke-width="1" opacity="0.8823529411764706" d="M 88.5 213 L 87.5 215 L 88.5 213 Z " /><path fill="rgb(0,0,0)" stroke="rgb(0,0,0)" stroke-width="1" opacity="0.8823529411764706" d="M 511.5 213 L 512 215.5 L 511 215.5 L 511.5 213 Z " /><path fill="rgb(0,0,0)" stroke="rgb(0,0,0)" stroke-width="1" opacity="0.8823529411764706" d="M 144.5 214 L 316 214.5 L 144.5 215 L 144.5 214 Z " /><path fill="rgb(0,0,0)" stroke="rgb(0,0,0)" stroke-width="1" opacity="0.8823529411764706" d="M 494.5 214 L 495 216.5 L 494 216.5 L 494.5 214 Z " /><path fill="rgb(0,0,0)" stroke="rgb(0,0,0)" stroke-width="1" opacity="0.8823529411764706" d="M 107.5 215 L 106.5 217 L 107.5 215 Z " /><path fill="rgb(0,0,0)" stroke="rgb(0,0,0)" stroke-width="1" opacity="0.8823529411764706" d="M 320.5 216 L 322.5 219 L 320.5 216 Z " /><path fill="rgb(0,0,0)" stroke="rgb(0,0,0)" stroke-width="1" opacity="0.8823529411764706" d="M 85.5 217 L 84.5 219 L 85.5 217 Z " /><path fill="rgb(0,0,0)" stroke="rgb(0,0,0)" stroke-width="1" opacity="0.8823529411764706" d="M 104.5 219 L 103.5 221 L 104.5 219 Z " /><path fill="rgb(0,0,0)" stroke="rgb(0,0,0)" stroke-width="1" opacity="0.8823529411764706" d="M 101.5 223 L 100.5 225 L 101.5 223 Z " /><path fill="rgb(0,0,0)" stroke="rgb(0,0,0)" stroke-width="1" opacity="0.8823529411764706" d="M 419.5 224 L 408.5 236 L 419.5 224 Z " /><path fill="rgb(0,0,0)" stroke="rgb(0,0,0)" stroke-width="1" opacity="0.8823529411764706" d="M 98.5 227 L 97.5 229 L 98.5 227 Z " /><path fill="rgb(0,0,0)" stroke="rgb(0,0,0)" stroke-width="1" opacity="0.8823529411764706" d="M 489.5 227 L 488.5 229 L 489.5 227 Z " /><path fill="rgb(0,0,0)" stroke="rgb(0,0,0)" stroke-width="1" opacity="0.8823529411764706" d="M 95.5 231 L 94.5 233 L 95.5 231 Z " /><path fill="rgb(0,0,0)" stroke="rgb(0,0,0)" stroke-width="1" opacity="0.8823529411764706" d="M 505.5 233 L 504.5 235 L 505.5 233 Z " /><path fill="rgb(0,0,0)" stroke="rgb(0,0,0)" stroke-width="1" opacity="0.8823529411764706" d="M 92.5 235 L 90.5 238 L 92.5 235 Z " /><path fill="rgb(0,0,0)" stroke="rgb(0,0,0)" stroke-width="1" opacity="0.8823529411764706" d="M 503.5 236 L 502.5 238 L 503.5 236 Z " /><path fill="rgb(0,0,0)" stroke="rgb(0,0,0)" stroke-width="1" opacity="0.8823529411764706" d="M 395.5 248 L 276.5 368 L 395.5 248 Z " /><path fill="rgb(0,0,0)" stroke="rgb(0,0,0)" stroke-width="1" opacity="0.8823529411764706" d="M 397.5 248 L 409 260.5 L 384 284.5 L 408 259.5 L 397.5 248 Z " /><path fill="rgb(0,0,0)" stroke="rgb(0,0,0)" stroke-width="1" opacity="0.8823529411764706" d="M 115.5 258 L 117.5 261 L 115.5 258 Z " /><path fill="rgb(0,0,0)" stroke="rgb(0,0,0)" stroke-width="1" opacity="0.8823529411764706" d="M 421.5 272 L 432.5 284 L 421.5 272 Z " /><path fill="rgb(0,0,0)" stroke="rgb(0,0,0)" stroke-width="1" opacity="0.8823529411764706" d="M 340.5 280 L 257.5 364 L 340.5 280 Z " /><path fill="rgb(0,0,0)" stroke="rgb(0,0,0)" stroke-width="1" opacity="0.8823529411764706" d="M 293.5 283 L 294.5 285 L 293.5 283 Z " /><path fill="rgb(0,0,0)" stroke="rgb(0,0,0)" stroke-width="1" opacity="0.8823529411764706" d="M 85.5 285 L 84.5 287 L 85.5 285 Z " /><path fill="rgb(0,0,0)" stroke="rgb(0,0,0)" stroke-width="1" opacity="0.8823529411764706" d="M 385.5 296 L 386.5 298 L 385.5 296 Z " /><path fill="rgb(0,0,0)" stroke="rgb(0,0,0)" stroke-width="1" opacity="0.8823529411764706" d="M 395.5 296 L 394.5 298 L 395.5 296 Z " /><path fill="rgb(0,0,0)" stroke="rgb(0,0,0)" stroke-width="1" opacity="0.8823529411764706" d="M 71.5 297 L 78.5 305 L 71.5 297 Z " /><path fill="rgb(0,0,0)" stroke="rgb(0,0,0)" stroke-width="1" opacity="0.8823529411764706" d="M 140.5 297 L 141.5 299 L 140.5 297 Z " /><path fill="rgb(0,0,0)" stroke="rgb(0,0,0)" stroke-width="1" opacity="0.8823529411764706" d="M 92.5 303 L 89.5 307 L 92.5 303 Z " /><path fill="rgb(0,0,0)" stroke="rgb(0,0,0)" stroke-width="1" opacity="0.8823529411764706" d="M 360.5 308 L 288.5 381 L 276 369.5 L 287.5 380 L 360.5 308 Z " /><path fill="rgb(0,0,0)" stroke="rgb(0,0,0)" stroke-width="1" opacity="0.8823529411764706" d="M 374.5 313 L 375 315.5 L 374 315.5 L 374.5 313 Z " /><path fill="rgb(0,0,0)" stroke="rgb(0,0,0)" stroke-width="1" opacity="0.8823529411764706" d="M 109.5 325 L 113 325.5 L 109.5 326 L 109.5 325 Z " /><path fill="rgb(0,0,0)" stroke="rgb(0,0,0)" stroke-width="1" opacity="0.8823529411764706" d="M 105.5 327 L 103.5 330 L 105.5 327 Z " /><path fill="rgb(0,0,0)" stroke="rgb(0,0,0)" stroke-width="1" opacity="0.8823529411764706" d="M 101.5 332 L 100.5 334 L 101.5 332 Z " /><path fill="rgb(0,0,0)" stroke="rgb(0,0,0)" stroke-width="1" opacity="0.8823529411764706" d="M 98.5 336 L 97.5 338 L 98.5 336 Z " /><path fill="rgb(0,0,0)" stroke="rgb(0,0,0)" stroke-width="1" opacity="0.8823529411764706" d="M 117.5 338 L 116.5 340 L 117.5 338 Z " /><path fill="rgb(0,0,0)" stroke="rgb(0,0,0)" stroke-width="1" opacity="0.8823529411764706" d="M 95.5 340 L 94.5 342 L 95.5 340 Z " /><path fill="rgb(0,0,0)" stroke="rgb(0,0,0)" stroke-width="1" opacity="0.8823529411764706" d="M 114.5 342 L 113.5 344 L 114.5 342 Z " /><path fill="rgb(0,0,0)" stroke="rgb(0,0,0)" stroke-width="1" opacity="0.8823529411764706" d="M 92.5 344 L 91.5 346 L 92.5 344 Z " /><path fill="rgb(0,0,0)" stroke="rgb(0,0,0)" stroke-width="1" opacity="0.8823529411764706" d="M 111.5 346 L 110.5 348 L 111.5 346 Z " /><path fill="rgb(0,0,0)" stroke="rgb(0,0,0)" stroke-width="1" opacity="0.8823529411764706" d="M 89.5 348 L 88.5 350 L 89.5 348 Z " /><path fill="rgb(0,0,0)" stroke="rgb(0,0,0)" stroke-width="1" opacity="0.8823529411764706" d="M 108.5 350 L 107.5 352 L 108.5 350 Z " /><path fill="rgb(0,0,0)" stroke="rgb(0,0,0)" stroke-width="1" opacity="0.8823529411764706" d="M 86.5 352 L 85.5 354 L 86.5 352 Z " /><path fill="rgb(0,0,0)" stroke="rgb(0,0,0)" stroke-width="1" opacity="0.8823529411764706" d="M 243.5 352 L 245.5 355 L 243.5 352 Z " /><path fill="rgb(0,0,0)" stroke="rgb(0,0,0)" stroke-width="1" opacity="0.8823529411764706" d="M 82.5 353 L 83.5 355 L 82.5 353 Z " /><path fill="rgb(0,0,0)" stroke="rgb(0,0,0)" stroke-width="1" opacity="0.8823529411764706" d="M 105.5 354 L 104.5 356 L 105.5 354 Z " /><path fill="rgb(0,0,0)" stroke="rgb(0,0,0)" stroke-width="1" opacity="0.8823529411764706" d="M 102.5 358 L 101.5 360 L 102.5 358 Z " /><path fill="rgb(0,0,0)" stroke="rgb(0,0,0)" stroke-width="1" opacity="0.8823529411764706" d="M 99.5 362 L 98.5 364 L 99.5 362 Z " /><path fill="rgb(0,0,0)" stroke="rgb(0,0,0)" stroke-width="1" opacity="0.8823529411764706" d="M 70.5 364 L 79.5 374 L 70.5 364 Z " /><path fill="rgb(0,0,0)" stroke="rgb(0,0,0)" stroke-width="1" opacity="0.8823529411764706" d="M 96.5 366 L 95.5 368 L 96.5 366 Z " /><path fill="rgb(0,0,0)" stroke="rgb(0,0,0)" stroke-width="1" opacity="0.8823529411764706" d="M 375.5 366 L 376 487.5 L 375 487.5 L 375.5 366 Z " /><path fill="rgb(0,0,0)" stroke="rgb(0,0,0)" stroke-width="1" opacity="0.8823529411764706" d="M 145.5 367 L 238 367.5 L 145.5 368 L 145.5 367 Z " /><path fill="rgb(0,0,0)" stroke="rgb(0,0,0)" stroke-width="1" opacity="0.8823529411764706" d="M 93.5 370 L 92.5 372 L 93.5 370 Z " /><path fill="rgb(0,0,0)" stroke="rgb(0,0,0)" stroke-width="1" opacity="0.8823529411764706" d="M 267.5 384 L 297 412.5 L 268.5 385 L 267.5 384 Z " /><path fill="rgb(0,0,0)" stroke="rgb(0,0,0)" stroke-width="1" opacity="0.8823529411764706" d="M 300.5 393 L 311.5 405 L 300.5 393 Z " /><path fill="rgb(0,0,0)" stroke="rgb(0,0,0)" stroke-width="1" opacity="0.8823529411764706" d="M 105.5 395 L 104.5 397 L 105.5 395 Z " /><path fill="rgb(0,0,0)" stroke="rgb(0,0,0)" stroke-width="1" opacity="0.8823529411764706" d="M 102.5 399 L 101.5 401 L 102.5 399 Z " /><path fill="rgb(0,0,0)" stroke="rgb(0,0,0)" stroke-width="1" opacity="0.8823529411764706" d="M 341.5 400 L 342 460.5 L 341 460.5 L 341.5 400 Z " /><path fill="rgb(0,0,0)" stroke="rgb(0,0,0)" stroke-width="1" opacity="0.8823529411764706" d="M 99.5 403 L 98.5 405 L 99.5 403 Z " /><path fill="rgb(0,0,0)" stroke="rgb(0,0,0)" stroke-width="1" opacity="0.8823529411764706" d="M 96.5 407 L 95.5 409 L 96.5 407 Z " /><path fill="rgb(0,0,0)" stroke="rgb(0,0,0)" stroke-width="1" opacity="0.8823529411764706" d="M 115.5 409 L 114.5 411 L 115.5 409 Z " /><path fill="rgb(0,0,0)" stroke="rgb(0,0,0)" stroke-width="1" opacity="0.8823529411764706" d="M 93.5 411 L 92.5 413 L 93.5 411 Z " /><path fill="rgb(0,0,0)" stroke="rgb(0,0,0)" stroke-width="1" opacity="0.8823529411764706" d="M 112.5 413 L 111.5 415 L 112.5 413 Z " /><path fill="rgb(0,0,0)" stroke="rgb(0,0,0)" stroke-width="1" opacity="0.8823529411764706" d="M 90.5 415 L 89.5 417 L 90.5 415 Z " /><path fill="rgb(0,0,0)" stroke="rgb(0,0,0)" stroke-width="1" opacity="0.8823529411764706" d="M 109.5 417 L 108.5 419 L 109.5 417 Z " /><path fill="rgb(0,0,0)" stroke="rgb(0,0,0)" stroke-width="1" opacity="0.8823529411764706" d="M 87.5 419 L 86.5 421 L 87.5 419 Z " /><path fill="rgb(0,0,0)" stroke="rgb(0,0,0)" stroke-width="1" opacity="0.8823529411764706" d="M 71.5 421 L 70.5 423 L 71.5 421 Z " /><path fill="rgb(0,0,0)" stroke="rgb(0,0,0)" stroke-width="1" opacity="0.8823529411764706" d="M 82.5 421 L 83.5 423 L 82.5 421 Z " /><path fill="rgb(0,0,0)" stroke="rgb(0,0,0)" stroke-width="1" opacity="0.8823529411764706" d="M 106.5 421 L 105.5 423 L 106.5 421 Z " /><path fill="rgb(0,0,0)" stroke="rgb(0,0,0)" stroke-width="1" opacity="0.8823529411764706" d="M 103.5 425 L 102.5 427 L 103.5 425 Z " /><path fill="rgb(0,0,0)" stroke="rgb(0,0,0)" stroke-width="1" opacity="0.8823529411764706" d="M 100.5 429 L 99.5 431 L 100.5 429 Z " /><path fill="rgb(0,0,0)" stroke="rgb(0,0,0)" stroke-width="1" opacity="0.8823529411764706" d="M 97.5 433 L 96.5 435 L 97.5 433 Z " /><path fill="rgb(0,0,0)" stroke="rgb(0,0,0)" stroke-width="1" opacity="0.8823529411764706" d="M 94.5 437 L 93.5 439 L 94.5 437 Z " /><path fill="rgb(0,0,0)" stroke="rgb(0,0,0)" stroke-width="1" opacity="0.8823529411764706" d="M 137.5 439 L 138.5 441 L 137.5 439 Z " /><path fill="rgb(0,0,0)" stroke="rgb(0,0,0)" stroke-width="1" opacity="0.8823529411764706" d="M 354.5 471 L 351.5 475 L 354.5 471 Z " /><path fill="rgb(0,0,0)" stroke="rgb(0,0,0)" stroke-width="1" opacity="0.8823529411764706" d="M 38.5 472 L 40.5 475 L 38.5 472 Z " /><path fill="rgb(0,0,0)" stroke="rgb(0,0,0)" stroke-width="1" opacity="0.8823529411764706" d="M 373.5 492 L 372.5 494 L 373.5 492 Z " /><path fill="rgb(0,0,0)" stroke="rgb(0,0,0)" stroke-width="1" opacity="0.8823529411764706" d="M 387.5 501 L 386.5 503 L 387.5 501 Z " /><path fill="rgb(0,0,0)" stroke="rgb(0,0,0)" stroke-width="1" opacity="0.8823529411764706" d="M 5.5 502 L 9.5 507 L 5.5 502 Z " /><path fill="rgb(0,0,0)" stroke="rgb(0,0,0)" stroke-width="1" opacity="0.8823529411764706" d="M 382.5 506 L 381.5 508 L 382.5 506 Z " /><path fill="rgb(0,0,0)" stroke="rgb(0,0,0)" stroke-width="1" opacity="1" d="M 195.5 1 L 208.5 3 L 217.5 7 L 231 19.5 L 238.5 36 L 372.5 36 Q 381 38.5 386 44.5 L 390 50.5 L 392 58.5 L 392 228 L 393.5 228 L 444.5 177 L 459.5 170 L 474.5 169 Q 493.5 172.5 503 185.5 L 509 196.5 L 511 202.5 Q 509.7 209.3 512 212.5 L 509 226.5 L 502 238.5 L 392 348.5 L 392 489.5 Q 390 500 383.5 506 L 371.5 512 L 20.5 512 Q 9.6 508.9 4 500.5 L 0 487.5 L 0 60.5 L 2 51.5 L 8.5 42 L 19.5 36 L 153.5 36 L 155 34.5 Q 158.8 18.3 170.5 10 L 183.5 3 L 194.5 2 L 195.5 1 Z M 191 18 L 182 22 Q 175 26 172 34 L 173 36 L 220 36 L 216 27 L 206 19 L 191 18 Z M 23 52 L 21 53 L 17 58 L 17 491 L 19 494 L 24 496 L 369 496 L 373 494 L 376 488 L 376 367 L 375 366 L 358 383 L 358 463 L 356 470 Q 352 476 345 478 L 48 478 L 43 476 L 35 467 L 35 82 L 37 78 L 47 70 L 111 70 L 111 53 L 111 52 L 23 52 Z M 127 52 L 127 78 L 128 82 L 136 87 L 257 87 L 262 85 L 265 79 L 265 53 L 265 52 L 127 52 Z M 281 52 L 281 70 L 346 70 L 352 73 Q 357 77 358 85 L 358 262 L 360 262 L 376 246 L 376 61 L 374 56 L 370 52 L 281 52 Z M 51 86 L 51 462 L 341 462 L 342 461 L 342 400 L 341 400 L 315 425 L 257 444 L 195 444 L 190 442 L 188 438 L 190 431 L 194 428 L 237 428 L 237 423 L 257 365 L 342 279 L 342 87 L 342 86 L 279 86 L 277 92 Q 271 100 260 103 L 133 103 L 123 99 L 113 88 L 113 86 L 51 86 Z M 465 186 L 451 193 L 433 211 L 433 213 L 470 248 L 490 228 L 495 217 L 494 204 L 488 193 L 478 187 L 465 186 Z M 420 224 L 408 236 L 446 272 L 457 260 L 422 224 L 420 224 Z M 396 248 L 276 368 L 276 370 L 288 381 L 363 307 L 366 306 L 371 307 L 374 312 Q 375 318 372 321 L 300 393 L 312 405 L 433 285 L 422 272 L 394 298 L 388 298 L 384 296 L 382 291 L 383 287 L 409 260 L 398 248 L 396 248 Z M 267 384 L 253 427 L 254 428 L 296 414 L 297 413 L 269 384 L 267 384 Z " /><path fill="rgb(0,0,0)" stroke="rgb(0,0,0)" stroke-width="1" opacity="1" d="M 108.5 121 Q 115 120 117 123.5 L 119 130.5 L 89.5 170 L 82.5 171 L 71 160.5 Q 67.8 158.2 69 151.5 Q 70.5 145.5 79.5 147 L 84.5 150 L 106.5 122 L 108.5 121 Z " /><path fill="rgb(0,0,0)" stroke="rgb(0,0,0)" stroke-width="1" opacity="1" d="M 145.5 146 L 315.5 146 L 322 149.5 L 324 154.5 L 320.5 161 L 315.5 163 L 144.5 163 L 137 157.5 Q 135.9 148.9 141.5 147 L 145.5 146 Z " /><path fill="rgb(0,0,0)" stroke="rgb(0,0,0)" stroke-width="1" opacity="1" d="M 109.5 189 Q 115.9 189.1 118 193.5 L 119 198.5 L 94 233.5 L 88.5 239 L 80.5 238 L 70 227.5 L 69 220.5 L 72.5 216 L 79.5 215 L 84.5 219 L 106.5 190 L 109.5 189 Z " /><path fill="rgb(0,0,0)" stroke="rgb(0,0,0)" stroke-width="1" opacity="1" d="M 142.5 215 L 318.5 215 L 323 219.5 L 324 222.5 L 319.5 230 L 316.5 231 L 143.5 231 L 139 229 L 137 225.5 L 137 220.5 L 140.5 216 L 142.5 215 Z " /><path fill="rgb(0,0,0)" stroke="rgb(0,0,0)" stroke-width="1" opacity="1" d="M 109.5 257 Q 115.9 257.1 118 261.5 L 119 267.5 L 95 300.5 L 88.5 307 L 85.5 308 L 80.5 306 L 70 295.5 L 69 288.5 L 72.5 284 L 79.5 283 L 84.5 287 L 105.5 259 L 109.5 257 Z " /><path fill="rgb(0,0,0)" stroke="rgb(0,0,0)" stroke-width="1" opacity="1" d="M 142.5 283 L 292.5 283 L 296 285 L 298 288.5 L 298 292.5 L 296 297 L 292.5 299 L 142.5 299 L 138 295.5 L 137 288.5 L 140.5 284 L 142.5 283 Z " /><path fill="rgb(0,0,0)" stroke="rgb(0,0,0)" stroke-width="1" opacity="1" d="M 107.5 326 Q 116.3 324.3 118 329.5 L 119 335.5 L 90.5 374 L 84.5 376 L 81.5 375 L 70 363.5 L 69 356.5 L 71 353 L 77.5 351 L 84.5 355 L 107.5 326 Z " /><path fill="rgb(0,0,0)" stroke="rgb(0,0,0)" stroke-width="1" opacity="1" d="M 143.5 351 L 240.5 351 L 246 355.5 L 247 360.5 L 243.5 366 L 241.5 367 L 142.5 367 L 138 363.5 L 137 356.5 L 139 353 L 143.5 351 Z " /><path fill="rgb(0,0,0)" stroke="rgb(0,0,0)" stroke-width="1" opacity="1" d="M 108.5 394 Q 116.1 392.9 118 397.5 L 119 403.5 L 89.5 443 L 83.5 444 Q 75.3 440.7 71 433.5 Q 67.8 431.2 69 424.5 L 76.5 419 L 84.5 423 L 106.5 395 L 108.5 394 Z " /><path fill="rgb(0,0,0)" stroke="rgb(0,0,0)" stroke-width="1" opacity="1" d="M 142.5 428 L 164.5 428 L 169 431.5 L 170 438.5 L 168 442 L 164.5 444 L 142.5 444 L 139 442 L 137 438.5 L 137 433.5 L 140.5 429 L 142.5 428 Z " /><path fill="rgb(0,0,0)" stroke="rgb(0,0,0)" stroke-width="1" opacity="0.4980392156862745" d="M 188.5 1 L 193 1.5 L 188.5 2 L 188.5 1 Z " /><path fill="rgb(0,0,0)" stroke="rgb(0,0,0)" stroke-width="1" opacity="0.4980392156862745" d="M 200.5 1 L 204 1.5 L 200.5 2 L 200.5 1 Z " /><path fill="rgb(0,0,0)" stroke="rgb(0,0,0)" stroke-width="1" opacity="0.4980392156862745" d="M 173.5 7 L 172.5 9 L 173.5 7 Z " /><path fill="rgb(0,0,0)" stroke="rgb(0,0,0)" stroke-width="1" opacity="0.4980392156862745" d="M 170.5 9 L 169.5 11 L 170.5 9 Z " /><path fill="rgb(0,0,0)" stroke="rgb(0,0,0)" stroke-width="1" opacity="0.4980392156862745" d="M 163.5 16 L 162.5 18 L 163.5 16 Z " /><path fill="rgb(0,0,0)" stroke="rgb(0,0,0)" stroke-width="1" opacity="0.4980392156862745" d="M 229.5 17 L 230.5 19 L 229.5 17 Z " /><path fill="rgb(0,0,0)" stroke="rgb(0,0,0)" stroke-width="1" opacity="0.4980392156862745" d="M 191.5 18 L 194 18.5 L 191.5 19 L 191.5 18 Z " /><path fill="rgb(0,0,0)" stroke="rgb(0,0,0)" stroke-width="1" opacity="0.4980392156862745" d="M 198.5 18 L 201 18.5 L 198.5 19 L 198.5 18 Z " /><path fill="rgb(0,0,0)" stroke="rgb(0,0,0)" stroke-width="1" opacity="0.4980392156862745" d="M 160.5 20 L 159.5 22 L 160.5 20 Z " /><path fill="rgb(0,0,0)" stroke="rgb(0,0,0)" stroke-width="1" opacity="0.4980392156862745" d="M 210.5 22 L 211.5 24 L 210.5 22 Z " /><path fill="rgb(0,0,0)" stroke="rgb(0,0,0)" stroke-width="1" opacity="0.4980392156862745" d="M 180.5 23 L 175.5 29 L 180.5 23 Z " /><path fill="rgb(0,0,0)" stroke="rgb(0,0,0)" stroke-width="1" opacity="0.4980392156862745" d="M 215.5 27 L 216.5 29 L 215.5 27 Z " /><path fill="rgb(0,0,0)" stroke="rgb(0,0,0)" stroke-width="1" opacity="0.4980392156862745" d="M 20.5 35 L 24 35.5 L 20.5 36 L 20.5 35 Z " /><path fill="rgb(0,0,0)" stroke="rgb(0,0,0)" stroke-width="1" opacity="0.4980392156862745" d="M 368.5 35 L 372 35.5 L 368.5 36 L 368.5 35 Z " /><path fill="rgb(0,0,0)" stroke="rgb(0,0,0)" stroke-width="1" opacity="0.4980392156862745" d="M 383.5 41 L 386.5 45 L 383.5 41 Z " /><path fill="rgb(0,0,0)" stroke="rgb(0,0,0)" stroke-width="1" opacity="0.4980392156862745" d="M 23.5 52 L 26 52.5 L 23.5 53 L 23.5 52 Z " /><path fill="rgb(0,0,0)" stroke="rgb(0,0,0)" stroke-width="1" opacity="0.4980392156862745" d="M 281.5 52 L 282 68.5 L 281 68.5 L 281.5 52 Z " /><path fill="rgb(0,0,0)" stroke="rgb(0,0,0)" stroke-width="1" opacity="0.4980392156862745" d="M 264.5 53 L 265 77.5 L 264 77.5 L 264.5 53 Z " /><path fill="rgb(0,0,0)" stroke="rgb(0,0,0)" stroke-width="1" opacity="0.4980392156862745" d="M 0.5 55 L 1 57.5 L 0 57.5 L 0.5 55 Z " /><path fill="rgb(0,0,0)" stroke="rgb(0,0,0)" stroke-width="1" opacity="0.4980392156862745" d="M 392.5 61 L 393 227.5 L 392 227.5 L 392.5 61 Z " /><path fill="rgb(0,0,0)" stroke="rgb(0,0,0)" stroke-width="1" opacity="0.4980392156862745" d="M 47.5 69 L 51 69.5 L 47.5 70 L 47.5 69 Z " /><path fill="rgb(0,0,0)" stroke="rgb(0,0,0)" stroke-width="1" opacity="0.4980392156862745" d="M 342.5 69 L 345 69.5 L 342.5 70 L 342.5 69 Z " /><path fill="rgb(0,0,0)" stroke="rgb(0,0,0)" stroke-width="1" opacity="0.4980392156862745" d="M 352.5 73 L 353.5 75 L 352.5 73 Z " /><path fill="rgb(0,0,0)" stroke="rgb(0,0,0)" stroke-width="1" opacity="0.4980392156862745" d="M 263.5 81 L 262.5 83 L 263.5 81 Z " /><path fill="rgb(0,0,0)" stroke="rgb(0,0,0)" stroke-width="1" opacity="0.4980392156862745" d="M 260.5 84 L 259.5 86 L 260.5 84 Z " /><path fill="rgb(0,0,0)" stroke="rgb(0,0,0)" stroke-width="1" opacity="0.4980392156862745" d="M 51.5 86 L 113 86.5 L 51.5 87 L 51.5 86 Z " /><path fill="rgb(0,0,0)" stroke="rgb(0,0,0)" stroke-width="1" opacity="0.4980392156862745" d="M 280.5 86 L 341 86.5 L 280.5 87 L 279.5 88 L 280.5 86 Z " /><path fill="rgb(0,0,0)" stroke="rgb(0,0,0)" stroke-width="1" opacity="0.4980392156862745" d="M 115.5 92 L 116.5 94 L 115.5 92 Z " /><path fill="rgb(0,0,0)" stroke="rgb(0,0,0)" stroke-width="1" opacity="0.4980392156862745" d="M 120.5 97 L 121.5 99 L 120.5 97 Z " /><path fill="rgb(0,0,0)" stroke="rgb(0,0,0)" stroke-width="1" opacity="0.4980392156862745" d="M 135.5 103 L 257 103.5 L 135.5 104 L 135.5 103 Z " /><path fill="rgb(0,0,0)" stroke="rgb(0,0,0)" stroke-width="1" opacity="0.4980392156862745" d="M 109.5 120 L 113 120.5 L 109.5 121 L 109.5 120 Z " /><path fill="rgb(0,0,0)" stroke="rgb(0,0,0)" stroke-width="1" opacity="0.4980392156862745" d="M 106.5 121 L 103.5 125 L 106.5 121 Z " /><path fill="rgb(0,0,0)" stroke="rgb(0,0,0)" stroke-width="1" opacity="0.4980392156862745" d="M 117.5 134 L 116.5 136 L 117.5 134 Z " /><path fill="rgb(0,0,0)" stroke="rgb(0,0,0)" stroke-width="1" opacity="0.4980392156862745" d="M 114.5 138 L 113.5 140 L 114.5 138 Z " /><path fill="rgb(0,0,0)" stroke="rgb(0,0,0)" stroke-width="1" opacity="0.4980392156862745" d="M 111.5 142 L 110.5 144 L 111.5 142 Z " /><path fill="rgb(0,0,0)" stroke="rgb(0,0,0)" stroke-width="1" opacity="0.4980392156862745" d="M 108.5 146 L 107.5 148 L 108.5 146 Z " /><path fill="rgb(0,0,0)" stroke="rgb(0,0,0)" stroke-width="1" opacity="0.4980392156862745" d="M 81.5 147 L 82.5 149 L 81.5 147 Z " /><path fill="rgb(0,0,0)" stroke="rgb(0,0,0)" stroke-width="1" opacity="0.4980392156862745" d="M 85.5 148 L 84.5 150 L 85.5 148 Z " /><path fill="rgb(0,0,0)" stroke="rgb(0,0,0)" stroke-width="1" opacity="0.4980392156862745" d="M 105.5 150 L 104.5 152 L 105.5 150 Z " /><path fill="rgb(0,0,0)" stroke="rgb(0,0,0)" stroke-width="1" opacity="0.4980392156862745" d="M 68.5 152 L 69 156.5 L 68 156.5 L 68.5 152 Z " /><path fill="rgb(0,0,0)" stroke="rgb(0,0,0)" stroke-width="1" opacity="0.4980392156862745" d="M 136.5 153 L 137 155.5 L 136 155.5 L 136.5 153 Z " /><path fill="rgb(0,0,0)" stroke="rgb(0,0,0)" stroke-width="1" opacity="0.4980392156862745" d="M 102.5 154 L 101.5 156 L 102.5 154 Z " /><path fill="rgb(0,0,0)" stroke="rgb(0,0,0)" stroke-width="1" opacity="0.4980392156862745" d="M 99.5 158 L 98.5 160 L 99.5 158 Z " /><path fill="rgb(0,0,0)" stroke="rgb(0,0,0)" stroke-width="1" opacity="0.4980392156862745" d="M 70.5 160 L 79.5 170 L 70.5 160 Z " /><path fill="rgb(0,0,0)" stroke="rgb(0,0,0)" stroke-width="1" opacity="0.4980392156862745" d="M 321.5 160 L 320.5 162 L 321.5 160 Z " /><path fill="rgb(0,0,0)" stroke="rgb(0,0,0)" stroke-width="1" opacity="0.4980392156862745" d="M 140.5 161 L 143 162.5 L 141.5 163 L 140.5 161 Z " /><path fill="rgb(0,0,0)" stroke="rgb(0,0,0)" stroke-width="1" opacity="0.4980392156862745" d="M 96.5 162 L 95.5 164 L 96.5 162 Z " /><path fill="rgb(0,0,0)" stroke="rgb(0,0,0)" stroke-width="1" opacity="0.4980392156862745" d="M 93.5 166 L 89.5 171 L 93.5 166 Z " /><path fill="rgb(0,0,0)" stroke="rgb(0,0,0)" stroke-width="1" opacity="0.4980392156862745" d="M 460.5 169 L 463 169.5 L 460.5 170 L 460.5 169 Z " /><path fill="rgb(0,0,0)" stroke="rgb(0,0,0)" stroke-width="1" opacity="0.4980392156862745" d="M 84.5 171 L 87 171.5 L 84.5 172 L 84.5 171 Z " /><path fill="rgb(0,0,0)" stroke="rgb(0,0,0)" stroke-width="1" opacity="0.4980392156862745" d="M 443.5 177 L 442.5 179 L 443.5 177 Z " /><path fill="rgb(0,0,0)" stroke="rgb(0,0,0)" stroke-width="1" opacity="0.4980392156862745" d="M 495.5 177 L 498.5 181 L 495.5 177 Z " /><path fill="rgb(0,0,0)" stroke="rgb(0,0,0)" stroke-width="1" opacity="0.4980392156862745" d="M 500.5 182 L 502.5 185 L 500.5 182 Z " /><path fill="rgb(0,0,0)" stroke="rgb(0,0,0)" stroke-width="1" opacity="0.4980392156862745" d="M 466.5 186 L 472 186.5 L 466.5 187 L 466.5 186 Z " /><path fill="rgb(0,0,0)" stroke="rgb(0,0,0)" stroke-width="1" opacity="0.4980392156862745" d="M 504.5 187 L 505.5 189 L 504.5 187 Z " /><path fill="rgb(0,0,0)" stroke="rgb(0,0,0)" stroke-width="1" opacity="0.4980392156862745" d="M 105.5 190 L 103.5 193 L 105.5 190 Z " /><path fill="rgb(0,0,0)" stroke="rgb(0,0,0)" stroke-width="1" opacity="0.4980392156862745" d="M 453.5 191 L 452.5 193 L 453.5 191 Z " /><path fill="rgb(0,0,0)" stroke="rgb(0,0,0)" stroke-width="1" opacity="0.4980392156862745" d="M 484.5 191 L 485.5 193 L 484.5 191 Z " /><path fill="rgb(0,0,0)" stroke="rgb(0,0,0)" stroke-width="1" opacity="0.4980392156862745" d="M 487.5 194 L 489.5 197 L 487.5 194 Z " /><path fill="rgb(0,0,0)" stroke="rgb(0,0,0)" stroke-width="1" opacity="0.4980392156862745" d="M 101.5 195 L 100.5 197 L 101.5 195 Z " /><path fill="rgb(0,0,0)" stroke="rgb(0,0,0)" stroke-width="1" opacity="0.4980392156862745" d="M 98.5 199 L 97.5 201 L 98.5 199 Z " /><path fill="rgb(0,0,0)" stroke="rgb(0,0,0)" stroke-width="1" opacity="0.4980392156862745" d="M 95.5 203 L 94.5 205 L 95.5 203 Z " /><path fill="rgb(0,0,0)" stroke="rgb(0,0,0)" stroke-width="1" opacity="0.4980392156862745" d="M 115.5 205 L 114.5 207 L 115.5 205 Z " /><path fill="rgb(0,0,0)" stroke="rgb(0,0,0)" stroke-width="1" opacity="0.4980392156862745" d="M 92.5 207 L 91.5 209 L 92.5 207 Z " /><path fill="rgb(0,0,0)" stroke="rgb(0,0,0)" stroke-width="1" opacity="0.4980392156862745" d="M 112.5 209 L 111.5 211 L 112.5 209 Z " /><path fill="rgb(0,0,0)" stroke="rgb(0,0,0)" stroke-width="1" opacity="0.4980392156862745" d="M 494.5 209 L 495 213.5 L 494 213.5 L 494.5 209 Z " /><path fill="rgb(0,0,0)" stroke="rgb(0,0,0)" stroke-width="1" opacity="0.4980392156862745" d="M 89.5 211 L 88.5 213 L 89.5 211 Z " /><path fill="rgb(0,0,0)" stroke="rgb(0,0,0)" stroke-width="1" opacity="0.4980392156862745" d="M 433.5 212 L 469.5 247 L 488 229.5 L 468.5 248 L 433.5 212 Z " /><path fill="rgb(0,0,0)" stroke="rgb(0,0,0)" stroke-width="1" opacity="0.4980392156862745" d="M 109.5 213 L 108.5 215 L 109.5 213 Z " /><path fill="rgb(0,0,0)" stroke="rgb(0,0,0)" stroke-width="1" opacity="0.4980392156862745" d="M 75.5 214 L 79 214.5 L 75.5 215 L 75.5 214 Z " /><path fill="rgb(0,0,0)" stroke="rgb(0,0,0)" stroke-width="1" opacity="0.4980392156862745" d="M 72.5 215 L 69.5 219 L 72.5 215 Z " /><path fill="rgb(0,0,0)" stroke="rgb(0,0,0)" stroke-width="1" opacity="0.4980392156862745" d="M 86.5 215 L 85.5 217 L 86.5 215 Z " /><path fill="rgb(0,0,0)" stroke="rgb(0,0,0)" stroke-width="1" opacity="0.4980392156862745" d="M 140.5 215 L 137.5 219 L 140.5 215 Z " /><path fill="rgb(0,0,0)" stroke="rgb(0,0,0)" stroke-width="1" opacity="0.4980392156862745" d="M 82.5 216 L 83.5 218 L 82.5 216 Z " /><path fill="rgb(0,0,0)" stroke="rgb(0,0,0)" stroke-width="1" opacity="0.4980392156862745" d="M 511.5 216 L 512 218.5 L 511 218.5 L 511.5 216 Z " /><path fill="rgb(0,0,0)" stroke="rgb(0,0,0)" stroke-width="1" opacity="0.4980392156862745" d="M 106.5 217 L 105.5 219 L 106.5 217 Z " /><path fill="rgb(0,0,0)" stroke="rgb(0,0,0)" stroke-width="1" opacity="0.4980392156862745" d="M 68.5 221 L 69 224.5 L 68 224.5 L 68.5 221 Z " /><path fill="rgb(0,0,0)" stroke="rgb(0,0,0)" stroke-width="1" opacity="0.4980392156862745" d="M 103.5 221 L 102.5 223 L 103.5 221 Z " /><path fill="rgb(0,0,0)" stroke="rgb(0,0,0)" stroke-width="1" opacity="0.4980392156862745" d="M 136.5 221 L 137 223.5 L 136 223.5 L 136.5 221 Z " /><path fill="rgb(0,0,0)" stroke="rgb(0,0,0)" stroke-width="1" opacity="0.4980392156862745" d="M 421.5 224 L 457 260.5 L 444.5 272 L 409.5 236 L 445.5 271 L 456 259.5 L 421.5 224 Z " /><path fill="rgb(0,0,0)" stroke="rgb(0,0,0)" stroke-width="1" opacity="0.4980392156862745" d="M 100.5 225 L 99.5 227 L 100.5 225 Z " /><path fill="rgb(0,0,0)" stroke="rgb(0,0,0)" stroke-width="1" opacity="0.4980392156862745" d="M 70.5 228 L 79.5 238 L 70.5 228 Z " /><path fill="rgb(0,0,0)" stroke="rgb(0,0,0)" stroke-width="1" opacity="0.4980392156862745" d="M 97.5 229 L 96.5 231 L 97.5 229 Z " /><path fill="rgb(0,0,0)" stroke="rgb(0,0,0)" stroke-width="1" opacity="0.4980392156862745" d="M 145.5 231 L 316 231.5 L 145.5 232 L 145.5 231 Z " /><path fill="rgb(0,0,0)" stroke="rgb(0,0,0)" stroke-width="1" opacity="0.4980392156862745" d="M 94.5 233 L 93.5 235 L 94.5 233 Z " /><path fill="rgb(0,0,0)" stroke="rgb(0,0,0)" stroke-width="1" opacity="0.4980392156862745" d="M 82.5 239 L 85 239.5 L 82.5 240 L 82.5 239 Z " /><path fill="rgb(0,0,0)" stroke="rgb(0,0,0)" stroke-width="1" opacity="0.4980392156862745" d="M 501.5 239 L 393 348.5 L 392.5 487 L 392 348.5 L 501.5 239 Z " /><path fill="rgb(0,0,0)" stroke="rgb(0,0,0)" stroke-width="1" opacity="0.4980392156862745" d="M 102.5 262 L 101.5 264 L 102.5 262 Z " /><path fill="rgb(0,0,0)" stroke="rgb(0,0,0)" stroke-width="1" opacity="0.4980392156862745" d="M 119.5 264 L 120 266.5 L 119 266.5 L 119.5 264 Z " /><path fill="rgb(0,0,0)" stroke="rgb(0,0,0)" stroke-width="1" opacity="0.4980392156862745" d="M 99.5 266 L 98.5 268 L 99.5 266 Z " /><path fill="rgb(0,0,0)" stroke="rgb(0,0,0)" stroke-width="1" opacity="0.4980392156862745" d="M 96.5 270 L 95.5 272 L 96.5 270 Z " /><path fill="rgb(0,0,0)" stroke="rgb(0,0,0)" stroke-width="1" opacity="0.4980392156862745" d="M 420.5 272 L 396.5 297 L 420.5 272 Z " /><path fill="rgb(0,0,0)" stroke="rgb(0,0,0)" stroke-width="1" opacity="0.4980392156862745" d="M 115.5 273 L 114.5 275 L 115.5 273 Z " /><path fill="rgb(0,0,0)" stroke="rgb(0,0,0)" stroke-width="1" opacity="0.4980392156862745" d="M 93.5 274 L 92.5 276 L 93.5 274 Z " /><path fill="rgb(0,0,0)" stroke="rgb(0,0,0)" stroke-width="1" opacity="0.4980392156862745" d="M 112.5 277 L 111.5 279 L 112.5 277 Z " /><path fill="rgb(0,0,0)" stroke="rgb(0,0,0)" stroke-width="1" opacity="0.4980392156862745" d="M 90.5 278 L 89.5 280 L 90.5 278 Z " /><path fill="rgb(0,0,0)" stroke="rgb(0,0,0)" stroke-width="1" opacity="0.4980392156862745" d="M 109.5 281 L 108.5 283 L 109.5 281 Z " /><path fill="rgb(0,0,0)" stroke="rgb(0,0,0)" stroke-width="1" opacity="0.4980392156862745" d="M 87.5 282 L 86.5 284 L 87.5 282 Z " /><path fill="rgb(0,0,0)" stroke="rgb(0,0,0)" stroke-width="1" opacity="0.4980392156862745" d="M 143.5 282 L 291 282.5 L 143.5 283 L 143.5 282 Z " /><path fill="rgb(0,0,0)" stroke="rgb(0,0,0)" stroke-width="1" opacity="0.4980392156862745" d="M 71.5 284 L 70.5 286 L 71.5 284 Z " /><path fill="rgb(0,0,0)" stroke="rgb(0,0,0)" stroke-width="1" opacity="0.4980392156862745" d="M 139.5 284 L 138.5 286 L 139.5 284 Z " /><path fill="rgb(0,0,0)" stroke="rgb(0,0,0)" stroke-width="1" opacity="0.4980392156862745" d="M 295.5 284 L 296.5 286 L 295.5 284 Z " /><path fill="rgb(0,0,0)" stroke="rgb(0,0,0)" stroke-width="1" opacity="0.4980392156862745" d="M 432.5 284 L 312.5 405 L 432.5 284 Z " /><path fill="rgb(0,0,0)" stroke="rgb(0,0,0)" stroke-width="1" opacity="0.4980392156862745" d="M 106.5 285 L 105.5 287 L 106.5 285 Z " /><path fill="rgb(0,0,0)" stroke="rgb(0,0,0)" stroke-width="1" opacity="0.4980392156862745" d="M 68.5 289 L 69 292.5 L 68 292.5 L 68.5 289 Z " /><path fill="rgb(0,0,0)" stroke="rgb(0,0,0)" stroke-width="1" opacity="0.4980392156862745" d="M 103.5 289 L 102.5 291 L 103.5 289 Z " /><path fill="rgb(0,0,0)" stroke="rgb(0,0,0)" stroke-width="1" opacity="0.4980392156862745" d="M 136.5 289 L 137 292.5 L 136 292.5 L 136.5 289 Z " /><path fill="rgb(0,0,0)" stroke="rgb(0,0,0)" stroke-width="1" opacity="0.4980392156862745" d="M 100.5 293 L 99.5 295 L 100.5 293 Z " /><path fill="rgb(0,0,0)" stroke="rgb(0,0,0)" stroke-width="1" opacity="0.4980392156862745" d="M 138.5 296 L 139.5 298 L 138.5 296 Z " /><path fill="rgb(0,0,0)" stroke="rgb(0,0,0)" stroke-width="1" opacity="0.4980392156862745" d="M 296.5 296 L 295.5 298 L 296.5 296 Z " /><path fill="rgb(0,0,0)" stroke="rgb(0,0,0)" stroke-width="1" opacity="0.4980392156862745" d="M 97.5 297 L 96.5 299 L 97.5 297 Z " /><path fill="rgb(0,0,0)" stroke="rgb(0,0,0)" stroke-width="1" opacity="0.4980392156862745" d="M 144.5 299 L 291 299.5 L 144.5 300 L 144.5 299 Z " /><path fill="rgb(0,0,0)" stroke="rgb(0,0,0)" stroke-width="1" opacity="0.4980392156862745" d="M 94.5 301 L 93.5 303 L 94.5 301 Z " /><path fill="rgb(0,0,0)" stroke="rgb(0,0,0)" stroke-width="1" opacity="0.4980392156862745" d="M 79.5 305 L 80.5 307 L 79.5 305 Z " /><path fill="rgb(0,0,0)" stroke="rgb(0,0,0)" stroke-width="1" opacity="0.4980392156862745" d="M 371.5 307 L 373.5 310 L 371.5 307 Z " /><path fill="rgb(0,0,0)" stroke="rgb(0,0,0)" stroke-width="1" opacity="0.4980392156862745" d="M 374.5 316 L 375 317.5 L 373 318.5 L 374.5 316 Z " /><path fill="rgb(0,0,0)" stroke="rgb(0,0,0)" stroke-width="1" opacity="0.4980392156862745" d="M 372.5 320 L 300.5 393 L 372.5 320 Z " /><path fill="rgb(0,0,0)" stroke="rgb(0,0,0)" stroke-width="1" opacity="0.4980392156862745" d="M 115.5 326 L 117.5 329 L 115.5 326 Z " /><path fill="rgb(0,0,0)" stroke="rgb(0,0,0)" stroke-width="1" opacity="0.4980392156862745" d="M 102.5 330 L 101.5 332 L 102.5 330 Z " /><path fill="rgb(0,0,0)" stroke="rgb(0,0,0)" stroke-width="1" opacity="0.4980392156862745" d="M 119.5 332 L 120 334.5 L 119 334.5 L 119.5 332 Z " /><path fill="rgb(0,0,0)" stroke="rgb(0,0,0)" stroke-width="1" opacity="0.4980392156862745" d="M 99.5 334 L 98.5 336 L 99.5 334 Z " /><path fill="rgb(0,0,0)" stroke="rgb(0,0,0)" stroke-width="1" opacity="0.4980392156862745" d="M 96.5 338 L 95.5 340 L 96.5 338 Z " /><path fill="rgb(0,0,0)" stroke="rgb(0,0,0)" stroke-width="1" opacity="0.4980392156862745" d="M 116.5 340 L 115.5 342 L 116.5 340 Z " /><path fill="rgb(0,0,0)" stroke="rgb(0,0,0)" stroke-width="1" opacity="0.4980392156862745" d="M 93.5 342 L 92.5 344 L 93.5 342 Z " /><path fill="rgb(0,0,0)" stroke="rgb(0,0,0)" stroke-width="1" opacity="0.4980392156862745" d="M 113.5 344 L 112.5 346 L 113.5 344 Z " /><path fill="rgb(0,0,0)" stroke="rgb(0,0,0)" stroke-width="1" opacity="0.4980392156862745" d="M 90.5 346 L 89.5 348 L 90.5 346 Z " /><path fill="rgb(0,0,0)" stroke="rgb(0,0,0)" stroke-width="1" opacity="0.4980392156862745" d="M 110.5 348 L 109.5 350 L 110.5 348 Z " /><path fill="rgb(0,0,0)" stroke="rgb(0,0,0)" stroke-width="1" opacity="0.4980392156862745" d="M 87.5 350 L 86.5 352 L 87.5 350 Z " /><path fill="rgb(0,0,0)" stroke="rgb(0,0,0)" stroke-width="1" opacity="0.4980392156862745" d="M 144.5 350 L 239 350.5 L 144.5 351 L 144.5 350 Z " /><path fill="rgb(0,0,0)" stroke="rgb(0,0,0)" stroke-width="1" opacity="0.4980392156862745" d="M 80.5 351 L 81.5 353 L 80.5 351 Z " /><path fill="rgb(0,0,0)" stroke="rgb(0,0,0)" stroke-width="1" opacity="0.4980392156862745" d="M 107.5 352 L 106.5 354 L 107.5 352 Z " /><path fill="rgb(0,0,0)" stroke="rgb(0,0,0)" stroke-width="1" opacity="0.4980392156862745" d="M 104.5 356 L 103.5 358 L 104.5 356 Z " /><path fill="rgb(0,0,0)" stroke="rgb(0,0,0)" stroke-width="1" opacity="0.4980392156862745" d="M 68.5 357 L 69 361.5 L 68 361.5 L 68.5 357 Z " /><path fill="rgb(0,0,0)" stroke="rgb(0,0,0)" stroke-width="1" opacity="0.4980392156862745" d="M 136.5 358 L 137 360.5 L 136 360.5 L 136.5 358 Z " /><path fill="rgb(0,0,0)" stroke="rgb(0,0,0)" stroke-width="1" opacity="0.4980392156862745" d="M 101.5 360 L 100.5 362 L 101.5 360 Z " /><path fill="rgb(0,0,0)" stroke="rgb(0,0,0)" stroke-width="1" opacity="0.4980392156862745" d="M 98.5 364 L 97.5 366 L 98.5 364 Z " /><path fill="rgb(0,0,0)" stroke="rgb(0,0,0)" stroke-width="1" opacity="0.4980392156862745" d="M 138.5 364 L 140.5 367 L 138.5 364 Z " /><path fill="rgb(0,0,0)" stroke="rgb(0,0,0)" stroke-width="1" opacity="0.4980392156862745" d="M 245.5 364 L 244.5 366 L 245.5 364 Z " /><path fill="rgb(0,0,0)" stroke="rgb(0,0,0)" stroke-width="1" opacity="0.4980392156862745" d="M 374.5 366 L 358.5 383 L 374.5 366 Z " /><path fill="rgb(0,0,0)" stroke="rgb(0,0,0)" stroke-width="1" opacity="0.4980392156862745" d="M 238.5 367 L 241 367.5 L 238.5 368 L 238.5 367 Z " /><path fill="rgb(0,0,0)" stroke="rgb(0,0,0)" stroke-width="1" opacity="0.4980392156862745" d="M 95.5 368 L 94.5 370 L 95.5 368 Z " /><path fill="rgb(0,0,0)" stroke="rgb(0,0,0)" stroke-width="1" opacity="0.4980392156862745" d="M 92.5 372 L 91.5 374 L 92.5 372 Z " /><path fill="rgb(0,0,0)" stroke="rgb(0,0,0)" stroke-width="1" opacity="0.4980392156862745" d="M 108.5 393 L 113 393.5 L 108.5 394 L 108.5 393 Z " /><path fill="rgb(0,0,0)" stroke="rgb(0,0,0)" stroke-width="1" opacity="0.4980392156862745" d="M 115.5 394 L 117.5 397 L 115.5 394 Z " /><path fill="rgb(0,0,0)" stroke="rgb(0,0,0)" stroke-width="1" opacity="0.4980392156862745" d="M 103.5 397 L 102.5 399 L 103.5 397 Z " /><path fill="rgb(0,0,0)" stroke="rgb(0,0,0)" stroke-width="1" opacity="0.4980392156862745" d="M 340.5 400 L 318.5 423 L 340.5 400 Z " /><path fill="rgb(0,0,0)" stroke="rgb(0,0,0)" stroke-width="1" opacity="0.4980392156862745" d="M 100.5 401 L 99.5 403 L 100.5 401 Z " /><path fill="rgb(0,0,0)" stroke="rgb(0,0,0)" stroke-width="1" opacity="0.4980392156862745" d="M 97.5 405 L 96.5 407 L 97.5 405 Z " /><path fill="rgb(0,0,0)" stroke="rgb(0,0,0)" stroke-width="1" opacity="0.4980392156862745" d="M 94.5 409 L 93.5 411 L 94.5 409 Z " /><path fill="rgb(0,0,0)" stroke="rgb(0,0,0)" stroke-width="1" opacity="0.4980392156862745" d="M 91.5 413 L 90.5 415 L 91.5 413 Z " /><path fill="rgb(0,0,0)" stroke="rgb(0,0,0)" stroke-width="1" opacity="0.4980392156862745" d="M 88.5 417 L 87.5 419 L 88.5 417 Z " /><path fill="rgb(0,0,0)" stroke="rgb(0,0,0)" stroke-width="1" opacity="0.4980392156862745" d="M 73.5 419 L 75 419.5 L 72.5 421 L 73.5 419 Z " /><path fill="rgb(0,0,0)" stroke="rgb(0,0,0)" stroke-width="1" opacity="0.4980392156862745" d="M 85.5 421 L 84.5 423 L 85.5 421 Z " /><path fill="rgb(0,0,0)" stroke="rgb(0,0,0)" stroke-width="1" opacity="0.4980392156862745" d="M 105.5 423 L 104.5 425 L 105.5 423 Z " /><path fill="rgb(0,0,0)" stroke="rgb(0,0,0)" stroke-width="1" opacity="0.4980392156862745" d="M 68.5 425 L 69 429.5 L 68 429.5 L 68.5 425 Z " /><path fill="rgb(0,0,0)" stroke="rgb(0,0,0)" stroke-width="1" opacity="0.4980392156862745" d="M 236.5 425 L 237 426.5 L 235.5 428 L 194.5 428 L 194.5 427 L 235.5 427 L 236.5 425 Z " /><path fill="rgb(0,0,0)" stroke="rgb(0,0,0)" stroke-width="1" opacity="0.4980392156862745" d="M 102.5 427 L 101.5 429 L 102.5 427 Z " /><path fill="rgb(0,0,0)" stroke="rgb(0,0,0)" stroke-width="1" opacity="0.4980392156862745" d="M 143.5 427 L 164 427.5 L 143.5 428 L 143.5 427 Z " /><path fill="rgb(0,0,0)" stroke="rgb(0,0,0)" stroke-width="1" opacity="0.4980392156862745" d="M 139.5 429 L 138.5 431 L 139.5 429 Z " /><path fill="rgb(0,0,0)" stroke="rgb(0,0,0)" stroke-width="1" opacity="0.4980392156862745" d="M 167.5 429 L 168.5 431 L 167.5 429 Z " /><path fill="rgb(0,0,0)" stroke="rgb(0,0,0)" stroke-width="1" opacity="0.4980392156862745" d="M 190.5 429 L 189.5 431 L 190.5 429 Z " /><path fill="rgb(0,0,0)" stroke="rgb(0,0,0)" stroke-width="1" opacity="0.4980392156862745" d="M 99.5 431 L 98.5 433 L 99.5 431 Z " /><path fill="rgb(0,0,0)" stroke="rgb(0,0,0)" stroke-width="1" opacity="0.4980392156862745" d="M 136.5 434 L 137 436.5 L 136 436.5 L 136.5 434 Z " /><path fill="rgb(0,0,0)" stroke="rgb(0,0,0)" stroke-width="1" opacity="0.4980392156862745" d="M 170.5 434 L 171 436.5 L 170 436.5 L 170.5 434 Z " /><path fill="rgb(0,0,0)" stroke="rgb(0,0,0)" stroke-width="1" opacity="0.4980392156862745" d="M 96.5 435 L 95.5 437 L 96.5 435 Z " /><path fill="rgb(0,0,0)" stroke="rgb(0,0,0)" stroke-width="1" opacity="0.4980392156862745" d="M 93.5 439 L 89.5 444 L 88 443.5 L 93.5 439 Z " /><path fill="rgb(0,0,0)" stroke="rgb(0,0,0)" stroke-width="1" opacity="0.4980392156862745" d="M 138.5 441 L 139.5 443 L 138.5 441 Z " /><path fill="rgb(0,0,0)" stroke="rgb(0,0,0)" stroke-width="1" opacity="0.4980392156862745" d="M 168.5 441 L 167.5 443 L 168.5 441 Z " /><path fill="rgb(0,0,0)" stroke="rgb(0,0,0)" stroke-width="1" opacity="0.4980392156862745" d="M 84.5 444 L 87 444.5 L 84.5 445 L 84.5 444 Z " /><path fill="rgb(0,0,0)" stroke="rgb(0,0,0)" stroke-width="1" opacity="0.4980392156862745" d="M 144.5 444 L 163 444.5 L 144.5 445 L 144.5 444 Z " /><path fill="rgb(0,0,0)" stroke="rgb(0,0,0)" stroke-width="1" opacity="0.4980392156862745" d="M 195.5 444 L 255 444.5 L 195.5 445 L 195.5 444 Z " /><path fill="rgb(0,0,0)" stroke="rgb(0,0,0)" stroke-width="1" opacity="0.4980392156862745" d="M 51.5 461 L 341 461.5 L 51.5 462 L 51.5 461 Z " /><path fill="rgb(0,0,0)" stroke="rgb(0,0,0)" stroke-width="1" opacity="0.4980392156862745" d="M 36.5 470 L 37.5 472 L 36.5 470 Z " /><path fill="rgb(0,0,0)" stroke="rgb(0,0,0)" stroke-width="1" opacity="0.4980392156862745" d="M 48.5 478 L 344 478.5 L 48.5 479 L 48.5 478 Z " /><path fill="rgb(0,0,0)" stroke="rgb(0,0,0)" stroke-width="1" opacity="0.4980392156862745" d="M 0.5 490 L 1 492.5 L 0 492.5 L 0.5 490 Z " /><path fill="rgb(0,0,0)" stroke="rgb(0,0,0)" stroke-width="1" opacity="0.4980392156862745" d="M 20.5 493 L 21.5 495 L 20.5 493 Z " /><path fill="rgb(0,0,0)" stroke="rgb(0,0,0)" stroke-width="1" opacity="0.4980392156862745" d="M 24.5 495 L 368 495.5 L 24.5 496 L 24.5 495 Z " /><path fill="rgb(0,0,0)" stroke="rgb(0,0,0)" stroke-width="1" opacity="0.4980392156862745" d="M 385.5 504 L 384.5 506 L 385.5 504 Z " /><path fill="rgb(0,0,0)" stroke="rgb(0,0,0)" stroke-width="1" opacity="0.4980392156862745" d="M 10.5 507 L 11.5 509 L 10.5 507 Z " /></svg>