<svg width="512" height="512" version="1.1" xmlns="http://www.w3.org/2000/svg" desc="Created with imagetracer.js version 1.2.6" ><path fill="rgb(255,255,255)" stroke="rgb(255,255,255)" stroke-width="1" opacity="0.9450980392156862" d="M 251.5 40 Q 271.8 38.8 279 50.5 L 284 60.5 L 285 65.5 L 285.5 228 L 287.5 228 L 440.5 228 L 441.5 227 L 454.5 231 L 463 238.5 Q 469.8 245.2 469 259.5 Q 466.4 272.4 457.5 279 L 446.5 284 L 285 284 L 285 446.5 Q 283 459.5 274.5 466 Q 267.2 473.2 251.5 472 Q 240.6 469.4 235 461.5 L 229 447.5 L 229 284 L 67.5 284 Q 56.6 281.4 51 273.5 Q 44 266.5 45 251.5 L 47 244.5 L 57.5 232 L 66.5 228 Q 71.2 229.3 72.5 227 L 73.5 228 L 226.5 228 L 229 227.5 L 229 64.5 Q 231.6 50.6 241.5 44 L 251.5 40 Z " /><path fill="rgb(0,0,0)" stroke="rgb(0,0,0)" stroke-width="1" opacity="0" d="M 0 0 L 512 0 L 512 512 L 0 512 L 0 0 Z M 252 40 L 242 44 Q 232 51 229 65 L 229 228 L 227 228 L 74 228 L 73 227 Q 71 229 67 228 L 58 232 L 47 245 L 45 252 Q 44 267 51 274 Q 57 281 68 284 L 229 284 L 229 448 L 235 462 Q 241 469 252 472 Q 267 473 275 466 Q 283 459 285 447 L 285 284 L 447 284 L 458 279 Q 466 272 469 260 Q 470 245 463 239 L 455 231 L 442 227 L 441 228 L 288 228 L 286 228 L 285 66 L 284 61 L 279 51 Q 272 39 252 40 Z " /></svg>