<svg width="512" height="512" version="1.1" xmlns="http://www.w3.org/2000/svg" desc="Created with imagetracer.js version 1.2.6" ><path fill="rgb(0,0,0)" stroke="rgb(0,0,0)" stroke-width="1" opacity="0.9607843137254902" d="M 252.5 41 Q 271.2 40.3 278 51.5 L 283 62.5 L 283 229 L 444.5 229 Q 457.3 231.3 463 240.5 Q 469 247.5 467 262.5 Q 464.3 272.8 456.5 278 L 451.5 281 L 443.5 283 L 283 283 L 283 449.5 Q 280.4 460.4 272.5 466 Q 266 471.5 253.5 471 Q 240.8 468.8 235 459.5 L 231 450.5 L 231 284.5 L 229.5 283 L 70.5 283 L 58.5 279 L 51 271.5 Q 46.3 265.2 46 254.5 L 48 245.5 L 58.5 233 L 69.5 229 L 229.5 229 L 231 227.5 L 231 61.5 Q 234.1 50.6 242.5 45 L 252.5 41 Z " /><path fill="rgb(0,0,0)" stroke="rgb(0,0,0)" stroke-width="1" opacity="0" d="M 0 0 L 512 0 L 512 512 L 0 512 L 0 0 Z M 253 41 L 243 45 Q 234 51 231 62 L 231 228 L 230 229 L 70 229 L 59 233 L 48 246 L 46 255 Q 46 265 51 272 L 59 279 L 71 283 L 230 283 L 231 285 L 231 451 L 235 460 Q 241 469 254 471 Q 266 472 273 466 Q 280 460 283 450 L 283 283 L 444 283 L 452 281 L 457 278 Q 464 273 467 263 Q 469 248 463 241 Q 457 231 445 229 L 283 229 L 283 63 L 278 52 Q 271 40 253 41 Z " /></svg>