<svg width="512" height="512" version="1.1" xmlns="http://www.w3.org/2000/svg" desc="Created with imagetracer.js version 1.2.6" ><path fill="rgb(255,255,255)" stroke="rgb(255,255,255)" stroke-width="1" opacity="0.4627450980392157" d="M 202.5 94 L 438.5 94 L 447 100.5 L 449 105.5 L 449 408.5 L 441.5 418 L 435.5 420 L 204.5 420 Q 196.4 418.6 193 412.5 L 191 407.5 L 191 334.5 L 196.5 326 L 202.5 323 L 208.5 323 L 216 327 L 220 335.5 L 220 391 L 420 391 L 420 122.5 L 418.5 123 L 221.5 123 L 220.5 122 L 220 178.5 Q 218.5 185 213.5 188 Q 209.8 191.3 201.5 190 L 193 183.5 L 191 178.5 L 191 105.5 L 197.5 96 L 202.5 94 Z M 203 95 L 197 98 L 192 106 L 192 179 L 194 184 L 202 189 Q 210 190 214 187 Q 218 184 219 178 L 219 122 L 220 121 L 421 121 L 421 392 L 219 392 L 219 336 L 217 331 Q 214 326 208 324 Q 201 323 199 326 Q 194 329 192 336 L 192 408 L 194 413 Q 197 418 205 419 L 436 419 L 442 417 L 448 409 L 448 106 L 445 100 L 438 95 L 203 95 Z " /><path fill="rgb(255,255,255)" stroke="rgb(255,255,255)" stroke-width="1" opacity="0.4627450980392157" d="M 165.5 153 Q 175.1 153.4 179 159.5 L 181 163.5 L 181 210 L 288.5 210 Q 295.7 211.8 299 217.5 L 301 224.5 L 301 289.5 Q 299.8 297.3 294.5 301 L 290.5 303 L 181 303 L 181 349.5 L 174.5 358 Q 171.2 361.2 163.5 360 L 159.5 358 L 65 263.5 Q 62.5 260 64 252.5 L 66 248.5 L 158.5 156 L 165.5 153 Z M 163 155 L 159 157 L 67 249 L 65 253 Q 64 260 66 264 L 160 357 L 164 359 Q 171 360 175 357 L 180 350 L 180 304 L 182 302 L 291 302 L 293 301 L 299 294 L 299 220 L 297 217 Q 294 212 289 211 L 180 211 L 180 164 L 177 158 L 172 155 L 163 155 Z " /><path fill="rgb(255,255,255)" stroke="rgb(255,255,255)" stroke-width="1" opacity="0.4627450980392157" d="M 152.5 201 L 154 201.5 L 154 228.5 L 158.5 235 L 164.5 238 L 273 238 L 273 276 L 163.5 276 Q 157.4 277.4 155 282.5 L 154 285.5 L 154 313 L 152.5 313 L 97 257.5 L 152.5 201 Z M 153 202 L 98 257 L 153 311 L 153 285 L 154 283 Q 157 277 164 275 L 272 275 L 272 275 L 272 239 L 165 239 L 160 237 L 153 229 L 153 202 Z " /><path fill="rgb(255,255,255)" stroke="rgb(255,255,255)" stroke-width="1" opacity="0.996078431372549" d="M 202.5 95 L 438 95.5 L 202.5 96 L 202.5 95 Z " /><path fill="rgb(255,255,255)" stroke="rgb(255,255,255)" stroke-width="1" opacity="0.996078431372549" d="M 442.5 97 L 444.5 100 L 442.5 97 Z " /><path fill="rgb(255,255,255)" stroke="rgb(255,255,255)" stroke-width="1" opacity="0.996078431372549" d="M 196.5 98 L 195.5 100 L 196.5 98 Z " /><path fill="rgb(255,255,255)" stroke="rgb(255,255,255)" stroke-width="1" opacity="0.996078431372549" d="M 192.5 105 L 193 178.5 L 192 178.5 L 192.5 105 Z " /><path fill="rgb(255,255,255)" stroke="rgb(255,255,255)" stroke-width="1" opacity="0.996078431372549" d="M 447.5 105 L 448 408.5 L 447 408.5 L 447.5 105 Z " /><path fill="rgb(255,255,255)" stroke="rgb(255,255,255)" stroke-width="1" opacity="0.996078431372549" d="M 218.5 121 L 219 177.5 L 218 177.5 L 218.5 121 Z " /><path fill="rgb(255,255,255)" stroke="rgb(255,255,255)" stroke-width="1" opacity="0.996078431372549" d="M 421.5 121 L 422 393 L 218.5 393 L 218 392.5 L 218 335.5 L 219 335.5 L 219 391.5 L 219.5 392 L 421 392 L 421.5 121 Z " /><path fill="rgb(255,255,255)" stroke="rgb(255,255,255)" stroke-width="1" opacity="0.996078431372549" d="M 158.5 157 L 67.5 249 L 158.5 157 Z " /><path fill="rgb(255,255,255)" stroke="rgb(255,255,255)" stroke-width="1" opacity="0.996078431372549" d="M 194.5 183 L 197.5 187 L 194.5 183 Z " /><path fill="rgb(255,255,255)" stroke="rgb(255,255,255)" stroke-width="1" opacity="0.996078431372549" d="M 215.5 184 L 213.5 187 L 215.5 184 Z " /><path fill="rgb(255,255,255)" stroke="rgb(255,255,255)" stroke-width="1" opacity="0.996078431372549" d="M 152.5 200 L 154 200.5 L 96.5 257 L 152.5 200 Z " /><path fill="rgb(255,255,255)" stroke="rgb(255,255,255)" stroke-width="1" opacity="0.996078431372549" d="M 180.5 211 L 289 211.5 L 180.5 212 L 180.5 211 Z " /><path fill="rgb(255,255,255)" stroke="rgb(255,255,255)" stroke-width="1" opacity="0.996078431372549" d="M 293.5 213 L 296.5 217 L 293.5 213 Z " /><path fill="rgb(255,255,255)" stroke="rgb(255,255,255)" stroke-width="1" opacity="0.996078431372549" d="M 156.5 232 L 158.5 235 L 156.5 232 Z " /><path fill="rgb(255,255,255)" stroke="rgb(255,255,255)" stroke-width="1" opacity="0.996078431372549" d="M 164.5 237 L 272.5 237 L 274 238.5 L 273.5 276 L 273 238 L 164.5 238 L 164.5 237 Z " /><path fill="rgb(255,255,255)" stroke="rgb(255,255,255)" stroke-width="1" opacity="0.996078431372549" d="M 66.5 263 L 67.5 265 L 66.5 263 Z " /><path fill="rgb(255,255,255)" stroke="rgb(255,255,255)" stroke-width="1" opacity="0.996078431372549" d="M 160.5 277 L 159.5 279 L 160.5 277 Z " /><path fill="rgb(255,255,255)" stroke="rgb(255,255,255)" stroke-width="1" opacity="0.996078431372549" d="M 156.5 281 L 155.5 283 L 156.5 281 Z " /><path fill="rgb(255,255,255)" stroke="rgb(255,255,255)" stroke-width="1" opacity="0.996078431372549" d="M 179.5 301 L 180.5 303 L 179.5 301 Z " /><path fill="rgb(255,255,255)" stroke="rgb(255,255,255)" stroke-width="1" opacity="0.996078431372549" d="M 203.5 324 L 208 324.5 L 203.5 325 L 203.5 324 Z " /><path fill="rgb(255,255,255)" stroke="rgb(255,255,255)" stroke-width="1" opacity="0.996078431372549" d="M 192.5 335 L 193 407.5 L 192 407.5 L 192.5 335 Z " /><path fill="rgb(255,255,255)" stroke="rgb(255,255,255)" stroke-width="1" opacity="0.996078431372549" d="M 163.5 358 L 166 358.5 L 163.5 359 L 163.5 358 Z " /><path fill="rgb(255,255,255)" stroke="rgb(255,255,255)" stroke-width="1" opacity="0.996078431372549" d="M 168.5 358 L 171 358.5 L 168.5 359 L 168.5 358 Z " /><path fill="rgb(255,255,255)" stroke="rgb(255,255,255)" stroke-width="1" opacity="0.996078431372549" d="M 197.5 415 L 198.5 417 L 197.5 415 Z " /><path fill="rgb(255,255,255)" stroke="rgb(255,255,255)" stroke-width="1" opacity="0.996078431372549" d="M 204.5 418 L 436 418.5 L 204.5 419 L 204.5 418 Z " /><path fill="rgb(0,0,0)" stroke="rgb(0,0,0)" stroke-width="1" opacity="0" d="M 0 0 L 512 0 L 512 512 L 0 512 L 0 0 Z M 203 94 L 198 96 L 191 106 L 191 179 L 193 184 L 202 190 Q 210 191 214 188 Q 218 185 220 179 L 221 122 L 222 123 L 419 123 L 420 123 L 420 391 L 220 391 L 220 336 L 216 327 L 209 323 L 203 323 L 197 326 L 191 335 L 191 408 L 193 413 Q 196 419 205 420 L 436 420 L 442 418 L 449 409 L 449 106 L 447 101 L 439 94 L 203 94 Z M 166 153 L 159 156 L 66 249 L 64 253 Q 63 260 65 264 L 160 358 L 164 360 Q 171 361 175 358 L 181 350 L 181 303 L 291 303 L 295 301 Q 300 297 301 290 L 301 225 L 299 218 Q 296 212 289 210 L 181 210 L 181 164 L 179 160 Q 175 153 166 153 Z " /><path fill="rgb(0,0,0)" stroke="rgb(0,0,0)" stroke-width="1" opacity="0" d="M 152.5 202 L 153 228.5 L 159.5 237 L 164.5 239 L 272 239 L 272 274.5 L 271.5 275 L 163.5 275 Q 156.6 276.6 154 282.5 L 153 284.5 L 152.5 311 L 98 256.5 L 152.5 202 Z " /><path fill="rgb(255,255,255)" stroke="rgb(255,255,255)" stroke-width="1" opacity="1" d="M 200.5 96 L 439.5 96 L 446 101.5 L 447 103.5 L 447 409.5 L 442.5 416 L 438.5 418 L 201.5 418 L 195 413.5 L 193 409.5 L 193 333.5 L 197.5 327 Q 201.2 323.7 209.5 325 L 216 329.5 L 218 333.5 L 218 393 L 422 393 L 422 121 L 218.5 121 L 218 121.5 L 218 179.5 L 212.5 187 Q 209.5 190 202.5 189 Q 196.4 187.6 194 182.5 L 193 180.5 L 193 104.5 L 198.5 97 L 200.5 96 Z " /><path fill="rgb(255,255,255)" stroke="rgb(255,255,255)" stroke-width="1" opacity="1" d="M 163.5 155 L 170.5 155 L 178 160.5 L 180 165.5 L 180 212 L 290.5 212 L 298 218.5 L 299 221.5 L 299 292.5 L 293.5 300 L 288.5 302 L 180 302 L 180 347.5 L 175.5 356 L 166.5 359 L 158.5 356 L 68 265.5 Q 64.2 262.3 65 254.5 L 67 249.5 L 159.5 157 L 163.5 155 Z M 153 200 L 96 257 L 154 314 L 154 287 L 157 281 L 162 277 L 166 276 L 274 276 L 274 239 L 273 237 L 163 237 L 161 236 Q 156 233 154 227 L 154 201 L 153 200 Z " /></svg>